<mxfile host="app.diagrams.net" modified="2022-02-22T15:59:12.622Z" agent="5.0 (Windows NT 10.0; Win64; x64) AppleWebKit/537.36 (KHTML, like Gecko) Chrome/98.0.4758.102 Safari/537.36" etag="_-QyZd00ppB0qLrCg5Zi" version="16.5.2" type="github">
  <diagram id="C5RBs43oDa-KdzZeNtuy" name="Page-1">
    <mxGraphModel dx="1574" dy="877" grid="1" gridSize="10" guides="1" tooltips="1" connect="1" arrows="1" fold="1" page="1" pageScale="1" pageWidth="827" pageHeight="1169" math="0" shadow="0">
      <root>
        <mxCell id="WIyWlLk6GJQsqaUBKTNV-0" />
        <mxCell id="WIyWlLk6GJQsqaUBKTNV-1" parent="WIyWlLk6GJQsqaUBKTNV-0" />
        <mxCell id="RAAy3S0Kc45pS8qdKvPB-0" value="" style="shape=image;verticalLabelPosition=bottom;labelBackgroundColor=default;verticalAlign=top;aspect=fixed;imageAspect=0;image=data:image/jpeg,/9j/4AAQSkZJRgABAQEAYABgAAD/2wBDAAEBAQEBAQEBAQEBAQEBAQEBAQEBAQEBAQEBAQEBAQEBAQEBAQEBAQEBAQEBAQEBAQEBAQEBAQEBAQEBAQEBAQH/2wBDAQEBAQEBAQEBAQEBAQEBAQEBAQEBAQEBAQEBAQEBAQEBAQEBAQEBAQEBAQEBAQEBAQEBAQEBAQEBAQEBAQEBAQH/wAARCAEmAioDASIAAhEBAxEB/8QAHwAAAQUBAQEBAQEAAAAAAAAAAAECAwQFBgcICQoL/8QAtRAAAgEDAwIEAwUFBAQAAAF9AQIDAAQRBRIhMUEGE1FhByJxFDKBkaEII0KxwRVS0fAkM2JyggkKFhcYGRolJicoKSo0NTY3ODk6Q0RFRkdISUpTVFVWV1hZWmNkZWZnaGlqc3R1dnd4eXqDhIWGh4iJipKTlJWWl5iZmqKjpKWmp6ipqrKztLW2t7i5usLDxMXGx8jJytLT1NXW19jZ2uHi4+Tl5ufo6erx8vP09fb3+Pn6/8QAHwEAAwEBAQEBAQEBAQAAAAAAAAECAwQFBgcICQoL/8QAtREAAgECBAQDBAcFBAQAAQJ3AAECAxEEBSExBhJBUQdhcRMiMoEIFEKRobHBCSMzUvAVYnLRChYkNOEl8RcYGRomJygpKjU2Nzg5OkNERUZHSElKU1RVVldYWVpjZGVmZ2hpanN0dXZ3eHl6goOEhYaHiImKkpOUlZaXmJmaoqOkpaanqKmqsrO0tba3uLm6wsPExcbHyMnK0tPU1dbX2Nna4uPk5ebn6Onq8vP09fb3+Pn6/9oADAMBAAIRAxEAPwD+/iiiigAooooAKKKKACiiigAooooAKKKKACiiigAooooAKKKKACiiigAooooAKKKKACiiigAooooAKKKKACiiigAooooAKKKKACiiigAooooAKKKKACiiigAooooAKKKKACiiigAooooAKKKKACiiigAooooAKKKKACiiigAooooAKKKKACiiigAooooAKKKKACiiigAooooAKKKKACiiigAooooAKKKKACiiigAooooAKKKKACiiigAooooAKKKKACiiigAooooAKKKKACiiigAooooAKKKKACiiigAooooAKKKKACiiigAooooAKKKKACiiigAooooAKKKKACiiigAooooAKKKKACiiigAooooAKKKKACiiigAooooAKKKKACiiigAooooAKKKKACiiigAooooAKKKKACiiigAooooAKKKKACiiigAooooAKKKKACiiigAooooAKKKKACiiigAooooAKKKKACiiigAooooAKKKKACiiigAooooAKKKKACiiigAooooAKKKKACiiigAooooAKKKKACiiigAooooAKKKKACiiigAooooAKKKKACiiigAooooAKKKKACiiigAooooAKKKKACiiigAooooAKKKKACiiigDC8SxibRL2Py2lZ/swjEcJmmSYXcBhnt2GFtbq2lCXFrqUzxW+lXEUWp3U8FvaSzR/znfs3XPwR+IvxZ0b4r/Fn9tf4i/Df9uL/huD4z+GPG/7PEn7XXii3TVPCnhj44fFzwh8Hf2X2/ZU03xxo3gbVfhdd/DzTPh9rvhXxBY/D3S7bxfaX2vfE7WvHWt6X4ovtNvP6QtQLi0m8tBK7bI1iKyskplkSPy5TDa3siQybtk8wtZRBCXmfYiNInk0fwh+HDfET/hcM3w28BD4uJpsOgz/ABQ/4Q7w/H8RP7JXdFH4dPj9PD9j4ivfC8CSsBZw3kcU0atZ3itZT3UbgH8//wAAf2tf2U/2Y9M/4LQa/wDAr42fBybw98KfiZc/HP4f+GPh14n0T9ofWrtrL9jz9nnXviF4s0r4VaT8V/B/ijx/4U1r46+IJtI8TeG7Hxv8P/CEnj/Vde8Dw/Eb4ePfHxpoXmvw7/4K2/HuT9n79saz8X/FX9lu5/aR+A3xY+A3w58C+KPE2t/s5eGtNvbD44eLtDsr7TNW074c/txeOfhFrXjPwNpms+KvD/g+21743/Cbw3B428J6HpHxN17TtU0C7ufEH9Ctj8Bvgp4butb1Hw58Gvht4aute8P6t4f8RvoXw/0HTF1HwhqU9nq3iHwd4kTwxZ3g8RWHiPUIP7U1XTNVtpl1iya70+ZVN20qVtG/Zv8A2eND8K33gTSfgH8E9H8B6zo8fhvVPAun/C7wX4f8HX3h7SbiOddLu/C9h4Y/sr+xvt13DeWug+IQY49QS1usebEjAA/BPUf+Con7QT/sY/DvxJ4O+L3wjP7RPir9rD4n/s5+KtY1DwZ8NPCXiCLwr8IND+InjLxVa/D74beOv2rdE/Z18QfFjSodL8KS31nZ/tO3fhifRPGt7onhrxJqPxU8L3nw80j9n/2BPjTrX7S/7OXwN+P/AIg8QeCde1b4geCb3UNa1P4c+GvE/gXwbqfiJtWvbPUR4f8ADPinxb4o1CXR4r/SdbeK/uNX8ZxXmsJrniDwh491Pwr4mlil9V1f9nr4Baz8P7L4Qar8BfhVf/CzQrMWmj/DrVfhj4Vu/h/oelXFxG1wmj+DY9BsvAuno335rnSLiG5hjzcMXMQib2Pw5otnokek6dpen2+i6XYWltZ6fpWmW1rbabpul6Xp0mm6PoumWWlr9g07w7Z2RMmnw5CJOkcUYDbFAB3FFFFABRRRQAUUUUAFFFFABRRRQAUUUUAFFFFABRRRQAUUUUAFFFFABRRRQAUUUUAFFFFABRRRQAUUUUAFFFFABRRRQAUUUUAFFFFABRRRQAUUUUAFFFFABWVrc89vpdzNaxrNcIYPKjJh3s7XMKjyI7geTcXQ3Zs7N5Lf7bdCGzW7smnF3Dq1j+IBOdHvhbyXcEhjQNc6fb/a9RtIDNGLm90618m5+1ahZW3m3Vjbi0vzPdwwxDTtQLCynAPxG8ef8FK/j74I1L48aHpn7IOieJ/HXwr/AGyPgd+yP8Pfh/dftM6NpOofFu6+NmnR+Ivhr47sr5fhZZxeDfDuseEfGPgPXmhufD/jPTbLTb/4rT6p4w1HTvgtexS/cHwg/al8HfFz43ftD/B7wbrHh+4T9mOTwhpmtXbXHxCs/FQ1LXY/FlhqN34n0fxn8MfAfgPSPD8uveFNY0f4V+K/BPxA+KfgrxTLoXxHVDoD+Fk0CTz/AMd/sNeC/HP7c/w9/bZuPGfii3f4c+B5NF1f4KpbRxfDzxz8QfD+nfEzwx8LvjP4m1GWeeOC+8F/DH9oX43+Fnv92qPrOha34RtUlsH+GKeFL/i/DX7LH7WujftV/tAftHy/tW/DR/DXx18I6J4Ak8A6N+yzrvh7xZ4V8N/DiH453XwG0/SPiBcftPeL/DGqeOvB/iv4yfaPH/ibUPBWkWvjjT/Amn+EU8G+GW8Qx+INJAO68Df8FDf2RPi/pvxL1H4bfFfWtfi+CPw0u/jP4+l0X4R/Gf7bp3wl0NdbVfHngOzv/h3od18aPD+oS6TruofDa88A+HfiFoXizUNCv7Lwro+u63HptjceD/En/gqT4S+EH7M37EP7UPirQvh/P8GP2o/HXw5+FHxK8a+B/HPxG8RWvw51bxt4E+JGu3Wo/DjRbr4N2Pjn4vWdn4y8A6v4L086ho/grx5rVze2/wBl8Cie/WRfP/2Ov+CZvx3/AGPJvijrvwy/aT+FHhnXvGPwp8N/D7wb4e8HfsweOfD37Omh+JtN1jRtUvfjP4p/Z2sf2pV8PjxDrNhpviLStD8I/BHxH+zF8L/Dcl/rEut/DXx14m12K5veR07/AIJeftMaB+zP+y1+z5pv7cHw40tf2Nf2gfh38e/hD4zl/Yn8UeKbuG9+H+h+P7ex8G+K/DfiH9p/xLH4kGran8QNb1PV7y11+017QNSj8M6J4auYdfbS5gAfaviv/go1+zmPh38Kvid8PfiDpHizw98Xfj54K+A3hyXxDpHxM0LS9N8U6r8RfDPw+8deEvFVr4Z+GHjrU/hH8QPDmm+I44vDnhD41+HvhW+s+I9S0bRvFHi3w34e1K+13T/RPjL8ffiT8Mv2mf2WvhHb+AfAuq/CL9o/xP8AET4WXPje48XeJLH4j+DfHvgn4OfE340wi0+HX/CFSeC9V+Hev6B8JLjw5dTyfEXwx4sfxNq1ldeH/Dmt6LFL4jt/jHxT/wAE8f2l/Gvwb1r4f6T+1h8KPCXjX4y/tH+Ff2uP2hvFkv7MWoeJvD3i74q/Dbxn+z14r+GHh/4ReFz+074b8SeCfh54Gg/Zy8C+GPG0fjXxl8WvEnxgvPFFz4zf4h+GYL19Gr2P4+fso/thfGLxt+zJ8R/Dn7YHwM+H3iD9mqa98bWMt/8Asn694z0zxh8WvFnwh+KHwV8R+PLu3H7U3w+OleGNY8NfE7VtU0fwKLnXPsOtaFp91/wneoCD7LOAe26T+01oOq/tf+If2QNHuPDOua/4R+DU/wAVvE2n32s/E3T/AIkrbaTrPw4t9Ki07QdZ8D2vwv8AGXhbU/D3xB0qbxv4y8P/ABhg8S6f4x8R+FvC3ir4ZXnh281XxNbfP/ws/wCCqv7Lnjf4rftLfDK41Lx14Q1b9mTx58VNC1nULn4V/He90rxD4J+GHwt0D4sePvHljqlt8MNU0rTRpV5qnifQ18DXfiJ/EHjFfh5/wmfgex1rQvFWl6PqHY+L/wBl79pHX/23/Cn7V/hz9pj4beFfBvgn4beIvhDpHwXuf2YfEeua3d/Bzxp4q+CHi34naBqPxKt/jn4dm/4TzXvEfwk0OTwlrcfw9tX8FaFrx0ZdH8dMP+EjWlZfBL46/AP43fHz41eFPi/Y6n8AviH8StX/AGn/AIufBTwf+zxfeMfjx4m8VeGfgX8P/hXc/Dz4a+K/+E3h8M6voLn4MaJ4jI8G/BLUPi54o8W6lZeFbfULW61ZNZsgD6G+EP7bv7Mnxm+Ivwz+F/w4+JD6744+Lf7PsH7VXw70a58FfEvRp/EfwE1DXoPCtv4yGreIvCul6Fphn8Q3trE3hDVtT0zxhZqTcXXg6xhja5i+zK/BX/gjL+zpbeCL/wDaN+NevfDz44fD6+1P4zeNPgP+zx4L+O3w78V/DfxP8I/2LvhnrviTxv8ABf4ceEtE8TaLpmpn4cap4n+K/wATPEz6xHt8P6/cweBdE1NT4r+G9kB+9VABXlnxy8W6j4B+DHxX8d6RYw6pqvgn4d+MfF+m6TdI0lpq974a8P3+tWukXkaRTSSWeqzWSafeRxKk0ltcypDPbSslxF6nXz/+1l/yax+0v/2b/wDGX/1XXiOgD4h+D+sf8FMPil8PPhn8S7P4pfsKaI/xG8BeGfiDYaDdfs5/tBXf9l2XiTwxoGqxQSXMv7TVjBqV5o0WuHRriXST4dh3TNL5EsSPZS+t/wDCPf8ABUr/AKLL+wR/4jH+0H/9GJX0F+yf/wAmu/s3f9kA+DP/AKrrw9X0DQB+fn/CPf8ABUr/AKLL+wR/4jH+0H/9GJR/wj3/AAVK/wCiy/sEf+Ix/tB//RiV+gdFAH5+f8I9/wAFSv8Aosv7BH/iMf7Qf/0YlH/CPf8ABUr/AKLL+wR/4jH+0H/9GJX6B0UAfn5/wj3/AAVK/wCiy/sEf+Ix/tB//RiVVvfDv/BUo2s6D4yfsJs8qeRCbL9mX49JNFcTkQ29w5u/2s9Wg+yW08kdxfqbCd3sYrhITDM0dxF+htYniN1TRb1WlMPniC0R1khiczXt1DaQRxmcPG8s006QxQG3vnuZJFt49M1WSVNNugD8lvFXxe/bN8D+PfBXwo8Zftk/8EwPB/xP+J11ZzfDT4X+J/hz8X/CPj/xnaQTDT7q98K+Dtb/AG1NO8UeKbO91bZa6VpfhzQJ47+7aG2vfKsXu7iD1jRbP/gplfX2pWem/HP9g+4udLvhZ6lHd/s1/tBXN3Beto+kaqlrqViP2wx/wjGrNpGsaNrEmjElTa6x5w+9uP5g/tu+Jvh98NPHH/BQvxZ4e8efsrfEOBtE8GeLP2p/2Pv2oPDGoeHvjR8Qbbwd8BvBk+hx/sYfHu08UWvi7w4vjzQbTw9oPwZsdV+GXxI+H+g/tD+CNevvh7feGPGVv8UbaDpPg98Yr/4Jftj/ABq0C9/aL8ReH/CfxV/4Kr+JfDHxo8NfEC0+GGgaL4V8O69/wSyuPjH4Z0y71jQtM0zUPAkWoeOfDmh6RY67c67aS+MbP4QWeneGtYTWtB+KHibxWAfox46k/wCCk3gzwf4i8W+M/wBob/gnt4T8IeG9Luda8U+J9W/Zt/aBsbDw94d05ftWtazNdN+2IFifTtNjubu23EB7qKGMsA+RoaP4Z/4Kim3tZD8ZP2B4rxFuIp7Zf2Z/2gbqDTXSHTobjRra4X9sIfLDPb7zgBSLcgAZNfz/APx2/aW+Iv7S37H37Vniz4kftf33w20uz/4J6eGPi94D0fQ7T4U+HtB+Pt38Vfjh+1r8O/Gej+JB4z+HkWr+ONBstF8E/Dr4YeGW+Hfijw94T8B+JPGWj+L7WLW/iR450PxBF9l2n7ZP7VurftM+OLY+PIPDGmWv7ZXxn/Z7tfhBq/xB+FyeHT8OPhT8M/iFq3gu08LfCIfDrWfjVe+PvFXgrwwP2iIPFEHjjxR4P1m4uI7DXdHn+F82mWjgH6k3Ojf8FQrWFprv43fsBWkAaNHuLj9mP9oMQoZpUhjVz/w2J/y0lkSJf9t1pYfD3/BUgNLGfjN+wNhFV4Hh/Zi/aDEcwc4LEH9sPI+UkjPcD2r8Hfib45+OPjP9lr4ZaT8Tv2wPjD4qj+Lv7Of/AATB/aq8Z+KNVf4Q6bdfDP4k+Jf2zfgP4f1bxJouoaX8ENIsbH4daQ+vHULvw1LB4m1m38VfDqwl1C+/4SBfGPizxP8A1geH4bmCG3jluYbvbJslnje1uZ5dlmqhbqfSrLRLFTbsBGN2mSA7kVdjkOoB8T/8I9/wVK/6LL+wR/4jH+0H/wDRiUf8I9/wVK/6LL+wR/4jH+0H/wDRiV+gdFAH5+f8I9/wVK/6LL+wR/4jH+0H/wDRiVVvtF/4KgWtndXF78bP2BLa0hgle4mm/Zj/AGg/LSIKdwb/AIzE/jHyL/tMK+/9SwLKUnfgNCf3cscLnE8RAV5njiJJ48uRikwzCyShzG/8M3/Bw1+zd/wW++JHxAg17QfiE/xS/wCCdmneK9F1S4+Gn7NfhfxP4bvvh1Z2WoWM+q6z+0d8M/8AhI9V+Lfxk8N6GiLqmp+J9I8T6/4Cu7XRZ/FVn4V+AaeIDJOAf1KW/h//AIKfXBM0Xxs/YQkdri3u7Ux/sx/tA/ZX02awkjjLf8Zh5P7xgy4ABbB+uh/wj3/BUr/osv7BH/iMf7Qf/wBGJWLb+Af+CnbywmD9rX9hGKX7ZdFx/wAO5v2hbi3hkWO7jkmSxX/gqpp7tH5nn2s14Imae8YSHS7Abmh2P+Ff/wDBUj/o8L9gj/xWd+0Z/wDTXaAKmo6F/wAFQYrR2vPjP+wcLUyW8cyW37MPx2a5uEmuYYvsdumofthNaST3pcWcMUis8ss6xwK1w0QMn7H3xc+P3jT4tftMfCX9oh/hBqni74DeLfhlZ6V4u+DHhjxl4K0DxdofxM+FNp44t73W/CHj3xl421DSPEWjGcaRcS6VqzRyRNsceS82W3ngL/gqKlu7P+19+wZIgMYZIv8Agmt+0TZuQZUU/wCmyf8ABU/U0sUGd0t82nXwsow919kn8nym+Gv2e/CX/BRm5/a9/btstC/ao/YrtvElt4w+A58aatf/ALAn7QmteH7y8/4UH4WGhJo3hOP/AIKTeGG8FuPDX9lGWxHiz4kHxAAdfN14ZEZ0kAH750V+fX/Cv/8AgqR/0eF+wR/4rO/aM/8AprtH/Cv/APgqR/0eF+wR/wCKzv2jP/prtAH6C0V+fX/Cv/8AgqR/0eF+wR/4rO/aM/8AprtVb34ef8FRJLWVJf2vP2Dp42C74oP+Ca37RFtK6h1JxNL/AMFS9YjCgDdIj6ZerLGGiMDb+AD6o/aM+L+j/s+/Ab4v/HXxF4d8W+LfDnwd+Hnir4meJPDvgNfD7+MdU8O+CdJufEWvQ+HYvFGv+F9Fn1KPSNPvLiG2m1/Tbu58loNJlk1eSxgl+DPgb/wU++APxz1DS9Z8NWWv+D/gtq/7M1v+1LaftDfETU/hj4Q+AkXw5/tTR9C1qw1PxdD8Tb3xV4H8deAPF+uan4N+KWheLfBOl6T4X8VaN41gHjvW4/BbadfeufFf4S/Hv4xfsTftBfAXxv4v+E2ufHT4qfAr42/Cm08b6N8PfFPwf+EX/CT/ABH8J6x4N8EXd54KvviT8e/EOlaVDp2t6CdUgtvG3xFu9St1uLFbfSTdDw1cfkN4b/4JQftZeB/Bf7RP/CqPjZ8Kfh14t+Pf7LHgL4fTeE/BWr+JI/AfhL4y23xO8Map+0PbeFPGCfDnVPiVoXhr48/DTQo7bxZ4yTTb7WtE+MHxK+JHxB8MfDKbXPE+nxkA/Xtf+CgX7DbeD/CHjvUP2z/2Yrfwf40mvdB8I+LLz9oH4cabpPifxJodn4Ll1rSbfWbHxX/Y99e+Hv8AhMfA95430zQs/wDCFp4t0lNY26br14G6XU/25f2MNF+H3g34sXv7Wf7NmjfDL4ia3N4X+HfjqL43/DKLwT401/TtUh0jV/DPgXxMuv32h+MNRi1iVGurTw/bS3UUKTS3QSGOV0/A5v8Agkl+3d4h8GePvC3jDWP2YLXwv4t+Kv7UvxkbVdb+L37VHx0+I/h/XP2hf2CvF37Hep+FLvxp8S9I8S674m8L+ENWu9D8Y2mt3mraJ43EmjJb6F4X8NagLDQJec8U/wDBE39rbVvG3if4m+G/HPwZtNT13xR8V9AvPg98P/jT8dv2dPh+nhD4xeCfgj4S1Z5PGXwS+FHjPxPe+HtI8U/B3VPDHiT4e+L/AAvd+HfiN8P7vRbnW9U+EHin4Z2lpqYB/WLoV5Yalb2Gp6ReWd9pmoQLf2d7p0ltcadf2lxCzQ3dnf6X/oF/FKrI6SnhlIePnbXTV8p/si/CvWPgT+zp+zZ8DdUXRYp/g38Ffhl8MLsabqXiK+t7W68A/DnRfDM2hWcuv3c2q31vbS2hudB1HWLq7ubnQIZpTpunyukkX1ZQAUUUUAFFFFABRRRQAUUUUAFFFFABRRRQAUUUUAFFFFABRRRQAUUUUAFFFFABRRRQAUUVm6wSum3bicWxhRZxM0C3SKbeRJ8SWzKTcxSeX5ctvC0VzPG7RWlxbXLxXEQBpUV/Nl/wUwtPixe/tpfCfwX8GfFH7eWqeL/Gv7HHx41Lw38JP2Uf2mPAvwe0+b4m/Dv4p/BO2+FPj34jaL8afi38Ofg9rGive/Erxb8PvGzWGm/F7xJ4o8PWngfT/EfhHVNF+Gt9YTdz4U/bS/a++HP274Z/HC4/Zh1/4s/DX9uf9kT9j34sy+GNK8Uadd/FXwX+0v8ACf8AZ11FfiF8NY31/wAO3MnizS9Y+K/ii/kvLjwafCb6J4M8baN4D+GOpaR4YiSYA/oUor+Yz9hn9qn9ozwLcfA/Q9Z8ZfBv4wfsufFX9uv9sj9k34ZW0XxR+Lnjz9q7whJ4d+Ov7Qnijwb4j8Z+MPiL4o8TWfirR/AnhzwnF8PvFPha68PD4heGPCOufD/x9pPxwuvBmo3nhvS/rP8AYGvvFnhf4e/8FI/A/wAKvirDrfir4Xftk/GPwL8CNW/aQ+JPj/44+G/DNhofwQ+ED+BxrGoa78Vtb+K9x8ObTxJq92Nb0rTfHMWr3ky+KtS0iLTvF3irxE0YB+4FFfz/APwZ/bZ+LMX/AATL/YW8YeCdN+G+k/Gb9o/VPhz+zv4ZvvjL8QfG3iD4WfDzxLM3iYy638VvEPj3xhqXxk8YPa6F4CHhzwlpC/E2bxz8U/HXjLw99n1bwzHrH9u6V9bfBX9pD9ozwN4E+Id/+0r4D0X4xePfAH7QPif4PRaX+w7pur/Eg3fhSx8E+E/FvhjX/F/gnxD448Y+IvAHiaZPEF//AMJJoviv4hWfidtJTwJ4kn0HVrbxU+soAfqVRX5+f8N6H/oy/wDb3/8AEeB/829H/Deh/wCjL/29/wDxHgf/ADb0AfoHRX5+f8N6H/oy/wDb3/8AEeB/829H/Deh/wCjL/29/wDxHgf/ADb0AfoHXzt+15cNafspftK3StOhtvgP8WZy1vapeyhYfAmuyPts3tb37SpRWEkCWss0kZdINk5jkXwX/hvQ/wDRl/7e/wD4jwP/AJt68M/af/bjbWf2bP2gNHH7HH7dNkdW+C3xQ0v7ZqnwDFlpln/aHgrW7T7XqVyPG+Y9PtvO869H/LS2SWP+OgDxT9mT/gqj4I0P9nf4CaVcfsaf8FOdauNA+EXw40SbUPCn/BPP9orxBoesNbeBdAU674b14eFfseqeF7optsrjSSYXkkjbiHNe9f8AD23wH/0Y5/wVh/8AFbv7Rv8A8ytc9+y1+3ktl+zp+z1Yf8MeftzamYfgl8MNPF7ov7Pv2rRr7+x/Afh20Op6Lcf8JyR/Y03McRwCZpEX+IlvoX/hvQ/9GX/t7/8AiPA/+begDxv/AIe2+A/+jHP+CsP/AIrd/aN/+ZWj/h7b4D/6Mc/4Kw/+K3f2jf8A5la9k/4b0P8A0Zf+3v8A+I8D/wCbeoLn9vF5IvLX9jD9vVTJJBH5jfs8jMSvPGrTx48Zynz4FJmt8Rt+/SPgdQAeRf8AD23wH/0Y5/wVh/8AFbv7Rv8A8ytH/D23wH/0Y5/wVh/8Vu/tG/8AzK1+Rf8AwWP/AOC83x4/YFP7KvxB+EX7OXxY8NaB4r8e+PdE+K3gj9qH4U6l4B0Pxj4Ss/D+hSw2vhDxlpOt6teeH/F/hm6W3177cNF8QWqjxKEv/D+v2L3WjXv7U/sY/wDBQXw3+2F+yJYftbWfwM/aS+FWiXGj32rX/wAPfiD8I/F2peONRtbGxku5dW+GuieFbLW9R+NvhnVJo/segap8PrTVfEWuNNDZr4P0GaZtEcA4r/h7b4D/AOjHP+CsP/it39o3/wCZWq91/wAFbfAJgdX/AGHP+CsGxykcm7/gm5+0sR5csiRyH/Q/CMlyCEZirRoQrYaTEQdh2X7Cf7a0H7aXw+1/xifh18VfA174T8cfFLQta1DxZ8FPi/8ACXw7Npng/wCNXxj8C+F9L8Nan8SPDouPHuuroXgPQn8aaT4Iu7uHwV41bxFYX2p6B4zh07w5J5Z8JP8AgoZ4z8aSQX/ib9mW58BeG/FvwI/aR+LnwPk0P46+F/EWv+O5f2WPFPhfwx448EeJPCnijS/hX4L+Gdz4jXxj4Z1z4W6vq/xF1XwTY+HE1648deJvgdrEGzUQDhvFP/BRD9nrxd4k0Xxn4q/4Jrf8FH9W8deDLlZ/CHj7Wv8Aglf8d/EvjLwksALWWseG/EN14GbWdDvrOXE8U0HzAhkl/dyStWZrv7fv7Ofi+bV7vxV/wTL/AOCknijVvFM/hXXvEcPiT/glv8etY/4SLUfBUdxb+BrjxLLrfgk6Zrms+GLW4vmjSfdNpY1H7XYbLq1gzmeCP+Cp994uGlfC3wX8KfhB8VvjFc/HX4M/BW10z4A/tj+Dviv8ENIvfjn8L/i98RPDuoah+0LZ/B/wlLZzeALj4A+O7X4k+CNM+DWpXHhjTrbw7e/CW88XXllpHg+S/o3/AAVgufCnhLVfid8Y/wBnSX4d/D2T4D/tOfETRbuz+MPh7xv4q1n4h/sU/EP4X/An4y/Ckaatv4f8C+DfA/iz4u+O4dI+BfivW/ipcQ+NdC0PVvGHxM8NfCybxTc2doAaGsft+/s065J4d0rVv+CY/wDwUY1q18FXc2meEm1r/glV8b9S03wnB4htnGojwtPrXgXz9IW4u52s72fRSIra0lnZ1+zeaVuTf8FFP2frnxhL8Rv+Hdn/AAUju/iKNG/sM+MR/wAEuPjdqfiweG72CWSLwwPF9l4KjvJvB0y6f9ibSY5sXdvK2nE7bqQN9M/sZftn+G/2u7/4naHpWsfCHW/HvwZ/4QK98Wat+zj+0PZ/tM/BS90H4jaRr2teDW8K/Gzw18OPAlprOvJJ4a8YaV49+Gni3wH4e8Q6NNbeGPFkemy+DfFvww8R696F8SNX/am1v9lz4r6r8LvAmi+B/wBp1/CnxRsPht4KPjnRfHcVvrSa9rsPgbUIPFHijQbLwfqWu694b/srxn4aTxne6d4L0bxRq2k+FvF+paZ4buNWv4gD4fuv+CjvwCl0GXwne/8ABPv/AIKdy+HP+ENg8C3Fg3/BM79o6b7X4L0611HR7Xw4i/8ACIyeTodpYQ6xeaf4dMR+wX8NvfYUQV6FpP8AwVj8ALNJNB+wv/wVchAAlmR/+Cbv7RtubMPa2VkdIs7X/hC4hst4rHS5WAfiNC4OF2n4ng/aY+K/wf8AhJ+1De/C79ob9qbxx8YPA3w3+FfiHTf2cP8AgoT8LfDHw0+L/gNtQ+Nd78M/GnxO8A+PPDPwSvdB+OPgXxDok2oWWtWPhbRvjP4Z8F/FDwZpWk6B49+E3hj4rXlnqH1do/7cfxY8R+NPDj+K/gRq3wp+G+nftkfEn9lHSPEnhb45eBvGI+LvjP4M+D/2qtW+K2qXXhfX/gtHremfC+a5+C1t9qudU8V/D34k+M/GP9mtYjRPBGg6ncfFYA9K/wCHtvgP/oxz/grD/wCK3f2jf/mVo/4e2+A/+jHP+CsP/it39o3/AOZWvC/Cf/BUX4hah4P8L+IfEH7MMnhbX/i58Kf2ffjJ+zT4FHxn0zxlpvjy1/aY+I3h74VfD/wn8XvGGjeDrGz/AGfZvDfxN1nw3qPiG80IfHTwJ4a+Fl14g1Z7y5+IdrpPwf039BP2Wfjx4z+L+qfE7RfiN8KZvg746+Dnxc1X4IeJvC8fjeTx3pes3um/C/4dfE208baD4gn8JfDVbjwdr+n+PYYfAban4Ks/G/ibwXp/h/xPrWi+EtRh8aeD/CIB83/8PbfAf/Rjn/BWH/xW7+0b/wDMrR/w9t8B/wDRjn/BWH/xW7+0b/8AMrX6z0UAfkx/w9t8B/8ARjn/AAVh/wDFbv7Rv/zK0f8AD23wH/0Y5/wVh/8AFbv7Rv8A8ytfrPRQB+SNz/wVt8B/Z5T/AMMOf8FXeEJxL/wTj/aMtwwHJVJG8K4adwNttAeLq4MVseJayf8AgnH8atM+Pv7Sn/BQT4j6L8N/jX8LbXUPiF+zxYT+Gfj/APCzxJ8E/iLC1v8As6eHXVtQ8AeJ9BsNQt4C6ZinaeNnADsSf3Uv7BP90/h/MV+f37NH/J6v/BRz/sc/2bf/AFnzw1QB+gdFFFABRRRQAUUUUAFFFFABRRRQAUUUUAFFFFABRRRQAUUUUAFFFFABRRRQAUUUUAFFFFABRRRQAUUUUAFFFFABRRWF4muLq00O/urQWxkgSGWU3c8NvbpZJcQnUZZJLmGa1zDp/wBplSO8exsp5ESG81fRLWSXWLEA3aydcE50u5W2tp7ydjbqlrbPCkk+65hV42a4vtNiEDIW+1A3kTNa+csSzSlIJfyM+GX/AAU+8HeMvEa6X8Qf2fvj18CfAN58SP2nfgrpXxf+KGo/BnV/hm3jv9lJ/i94j+NvgLXrzwL8c/EvxD8Da+PDPwV8ceJ9GuPFPhNPA994Z8JSWVh4rury4hspvfvCf/BRb9hjxjpHjTXPCv7ZH7OPizQ/hJ4P0rx58T9Y8NfF3wXq9t4W8Na9cW8OhaneS6B4gvxZaRq63cUWg6be2sup6tN4o8H6Tppi1a+s5FAPX/H/AOyx+zt8VfH/AIS+NHj34D/CP4gfFzwJL4WbwH8VvF/w68N+LfH3heXwHr+v+LPA83hbxd4r0XXde8PaZofiLxJ4g8S2Nz4Z1aK7jn1DbatIX2Nyvj/9kL9l/wCMHi1/i78Rv2Y/gN4z+LlnoOl6Vp3xJ+I3wn8G+NPHKWHhXVJNe8LA+M/H3hceLhYeDdZM0wtLhhaCC/aCAkSIo8e+L3/BTn9iH4f/ALNWiftQXf7RPwx8W/A3xx8W/AHwZ0jx94S8UeHPEmh3Pib4h+KfD/hS+t7tIbyym83wBoGv6j41+JHg+KeL4gaT8PfDvibU1VnslSTpNc/4KF/sOeAfB/w8+KfjT9sL9nzw34C+Nes69pvwv8Tal8T/AAn/AGN45ufCWr2nhPxjLomu22u3tt4wt/ht4vli8E+MPHdvbyeG/B19PonhXxiU1lhKADs/A37CP7FXwj8SjXvhT+yF+zF8M/Er+HdU8KnXPAnwL+F3g3UpvC92JdIvvC13e6N4VTUdT0/xf4fN1p+tWMZ8vWtH06/0q7/0S+mWk8P/ALAf7D/hPTvEnhzwl+xZ+yn4X8PePPD58G+ONL0X9nz4WaHY+NfBj69ZeLP7F8S6Vo3hT7L4l0Sz8WadpmtWGg64CulavYWmu4W5sVLZvxU/bb/ZH+BPi3wj8M/jN+018DvhT42+IOmWl/4Q0L4kfErwj4V8ReItGuUayi11FvtU0OPwzpWo3fhzV9C8OeL7a9h8NXnjnTda8K6Fa6nr+h2GlXfn/hH/AIKYfse+Mf2pfiZ+x0fjX4HsPjd8N9W8F+Fk8H6v4n8GQp408UajB43uNf8ADfww0mw8RX3i/VvF/wAP5/Cd54S8f6DeeEtAudG8TzeGtK0a4utT8UWUbAHtFl+xH+xpoXw78cfBvRP2Uv2d/C3wp+Kd3aL8R/hp4Y+Cnw48P+APFs2jiF9Bl8VeFvD3hX/hHNUuNNu7Ww1jR7zXgZtI12x03VrHF/Z2wr0j4HfBP4RfAnQdP8CfAv4X/Dv4QfD/AE261DUbfwJ8LfBOmeAfBtvPrsRkbXl0jRdBsrHV/Ed6bAW174kNxF9qtpJo8yvIEfyPwZ+2z+xt8Utb+KXhvwN+1H8F/GWr/BXSNe1v4pWuleOfCsv/AAgXhLw5dfZfFvi/xTel105vBfgm487SvG3iAPH4W8Jagr6R4zmh1kCRfMf2Ov2+vhJ+2P8AHP48+Bfgnq3g3xx4A+Dfh74IeK9I+LPgP4maX8QdH8aD4s6V8VdCu/D2r6Msaah8PPFfg/Xvg/4jM+n6gI9S8ZeCNV+H3xA0KO48J+Jp7hQD9LaKKKACiiigAr5//ay/5NY/aX/7N/8AjL/6rrxHX0BXz/8AtZf8msftL/8AZv8A8Zf/AFXXiOgBP2T/APk139m7/sgHwZ/9V14er6Br5+/ZP/5Nd/Zu/wCyAfBn/wBV14er6BoAKqX0aSWzB+FSS3mDlY2ET29xFPHOwlwmyCSNZnJIZURmQhwtW6rXrMtpcFNu8xOkYb7pkcbI1P8AvOyqPcigD4++OP7I37O/7Sfjr4O+Ofj58JPBHxb1X4Gav4g1v4YD4h6ffeKPDnhfxT4k0/w7G/ivQ/CurbvCV5qEFv4beWxutQjb+xb6K31qxI1KwsnH05bt5UaShZ4o4lVYkkt7YRsyMsEV/LeaW4sJNPt7Z8/ZW2fZ4oiw2tGgHxB/wUD/AOCgHwa/4JyfBTTP2hvjvbeL3+F2q/FXwh8MNZuvB+lw61qnh++8UN4ktIdWGlvcW8l/pdhe+HYLrXrawj1HWH0KPUm0HRNe1oWGh6j7V+zx+0/8C/2t/hloXxf/AGdviZ4P+LXw/wDFMeNK8WeCNXmvbWG7isLXUG07UhPFbavoOp2Tzf6X4Y8V6L4R8R2TQyTXPhuK3QzAA7rwP4J8M/DTwc3h7wF4d0vwT4ftNV8S+KrPTNGWCLQLPUvFHjbVfF/i7WFe4jmiVPFWt+Itf8TaiWa1JttcuNl/pjFb+1+JfFf/AATr+AHiz4T+Hfg/ea98S7jwt4e+B37Sv7OVhdR6p4Xs9euPAn7WuseGrv4qNe3GoeErfTx4ptbnQvBlz8Ol1Kyk0qaGC1g1Twx40sZLi6m+T/23f21f2n/hF8erz4TfBD4faDP4Y0H4dfC/wsurSfGP4YaLqms+Pv2qvjj8CPhD8HvFtr8O9WxrnhmTwJrfhD4xeEP+EMth5upjxCfGGANPZR9//H79qjV/gp8Yv2e/g14c+FOsfE28+NVn8VNf1fxFJ4r03wh4Y+Gnw3+El38Lbnxt498e6hrWm6ve3+maRp/xMF7BbaBp08mp3Vvb6fGYUvPPhAPFPhr/AME/vBWi/FLRfjv4w+OXx6+LvxH07Wfg58RV8TePLr4SaJ4H+0/A/wCHX7Rnwg8JLpPhX4afB7wJ4V8PeFr3wT+0b4qudW8JaPZ6V4W1S/0Lwp4x8K+JpfEGn/EvxT4u6XxP/wAE8v2e/E3gm08H69qfxM1jS9D8O/tbeGBIdc0/TNfa3/bD+K9r8bPiRqE2oaV4UtNa0bxjoPjfTvDWtfDHXNCit9e0E6bYavomk+ItXsrLWk+VPiB/wUZ8c6x8CIvEPh/wT46/Zz1v4zfAjQv2nf2WPGfjPxL4K+JGqeIvgx/wtX4L+FvGd/4z8LX+k+NdK8EfEXSNB+Pfw78aP4FvNR+JunweE/HGlaTofxDuNe8KfF/wj8J/tj9mv4rfFbxd8A/ir8UL7w9efFD4ieFfjl+3R4L8LeEbW88P+D28S6J8Hf2wv2iPh18JvBi6pqlpoPhjQPs/hH4e+E/CTeJNe0ow2ccLeKL8prviHxY6gHqvwY+DHif4U23jO/8AEvxv+Nfx68b+LLix1O48TfGLUfCVnpWkaVpdhqWl6DonhjwF8MvDfwf+GnhhIDd6hrvi/VfDngvSfFHjbUdTbV/FNw1vZeAvD/hXD+If7OVn8YfgV4r/AGd/ij8VPiN8QtC8Y2WsaJq/jSfW9I8HfEy3n1fxjf8AiDw/4i0zxb8JPCPw38OeFvHHwo16w0zTPhV4g8PeHdP/ALFfwtp2peJtP8eeKLSG5uvE/wBtr4s/E34Taz+xlo/wv8QTaFcfGL9uP4afBb4kT3um6TqsuvfDHWfhf8WfF3iHSYn12x1TUtLnvtS8IeFrW28XaZpt14h8H3F5APDSr4b1q5I+OfiX/wAFUPjJrn7I/wARfi74K/Zw8X/CT4i+Kf2ENW/bU/Zu1Txf48+F/jHTda8DzQ+C9A8SXviLw5pt5aaxpXif4bP8UfB3xC8I+A/Gfhi+074g+A9X8Ip4gfwr8XbrxZ8O/AYB9dXX7Auk+MNK+J1p8Zv2gv2kfjZ4v8ZeCNP+Eeg/FLxh/wAKK0vx98OvANj41tPiVeW3w60zwJ8IfD3w2mbUfF2meF/EOv6p4q+HmteMfGun/DDwtp+qQ+IPDfhzwzY3fWab+xH8P4tE8HeFTq/jm5ufAfx2+K/7S0Ou6vqvg1df1P4vfF3TPijpHjLUNcn8N+GdL8IafLqlx8b9d1vw3o+g+BbW40WW38Hatc3LRWb+DdR8G8H/APBVb4M6t8bdE+A3i4+CvBt5L8R9W+COrXkv7QHws8Ta5oXxt8PeD9a8SeLvC+qfCrS/FsHxV134W+F/Eem678MvEHxZ13w7ptnqXj3QNYv9O8Et8HJ9L+ON7i3P/BVfTPB/g/TPir8QvgH8TfA/wt8ffs9n9pP4HeNfEnjr4Q6Vb+O/A/iz4vfA/wCF3wn8DeJtY8Wa14f8OfCv4kePNd+PXwz1nxDpPxW8RaT4Z+D3hzxLoOv+N/ixql3d/EzT/hgAd58Zv2CdEs/g74R0z4R6F4/8X+Mvgd8FP2d/gb8INFPxT8N/DXxF4e8Mfs8/Gj4aePPC/wARPBPii/8Ah9rvhiT41eFD8Ol8UeCz8QbEfCf4ieJ9I0b4ffF3whonwv8AFPi3WdP9O/4J0/Bj4q/CPwx8Y9f+Nd34rl8ffH34/wDiL43XGlfEDxF4G8T/ABL0HRrv4afDz4c+HrLx/wCI/h1aeHPA+o+ILm3+HWo+Jtf0DwLoMngPwfrPjCPwl4HSHQfCbSp4T8Pf+Cp2n/E7U/AXgD4M/B20+PHxQ8Q/GTxf8E/ES/Bn46fCvxb8G9P/AOFd/C74a/GPxN4x0P453viA6F438L2Pgf4gpp8NpLomm+OZviJo3jLwTf6Bp9xoGoa7qv7AaaZ5GhkMV1bIzBjCyGNIY2tn/wBCmgmPkIbeYqBdaVuiuWjTJELMSAb9FFU9QZ0srloopJpViYwxRGESPNj9yEa4/wBHQiXYd9wDBHjfMDGrUAXKK+CtF/bq/ZXuv2wNC/Yt0H44eGPEn7Rup6N421+8+D3gyGbxBqHg3QPBWlWc+qP8QLvQ86B8LPs959uSw8G+NivxC8QX13a6vpAPhaO4x960ANf7p/D+Yr8/v2aP+T1f+Cjn/Y5/s2/+s+eGq/QF/un8P5ivz+/Zo/5PV/4KOf8AY5/s2/8ArPnhqgD9A6KKKACiiigAooooAKKKKACiqOpOYrC6lVLmRoomlCWcQmunMeHCwQnmWQ7cLGn7xz8sX70pX55/sxf8FDP2bf2pvCnx+8UeBtc8Y+EJP2aPGniXwR8atD+LngjxF8O/FXgXxP4ct7qbWb+fQ/F8bQ2httQh8TaPb/2eGjn8SeGvEvhz5h4eZiAfo1RX5xXP/BQj9j6H9lzT/wBr6/8Aiv4P0/4HR+B/h/4zudWs9Qs7zxBo/hr4k6Paav4f8KeLPC2kkXumaxeeGrpbzWtBUfZfC8/h3xZNqO3TvAd44+nZ/jX8JhoHhnxUvxW+Gdxomsa5Poui60PiB4Lk0LxFqwluLTUvDWlazcsLXU9WtUN4INL0FopkvLCOHVZoNP8AtkygH0BRXyLqX7Rnw5j8SfBHw54N1ay+Ja/HjW/Edp4G1nwR408E67otvomj+AfGHjzUfF+qs3ivRtb1zwDc6l4VsvDFx4v+GejfFW/tfHPi/TfCOoaVY6TfX+qWPF/DX9sb4TfEz4x/GP4CTR6p8N/iv8HvildfCdvCvxA1H4VaB4g+I/iCHwD4W+LNp4k+EekaN478W3+r6PrHw88fadrAudbm8NeNLC31KbUtV8E6dY2t3d24B93UV4jpnxZ8Aa1qfhuy0z4geANRuPGCeJpPDlvpXjfwxff27aeGJWs/E+oeD1jvZX8RWfhieG4tPGNssRFhqMM1yyp9m58g+Bf7Xf7P3x70W68Q/Cv4j+Dddi0y8+JEXiO0g8T6THquj2/w38ceJvBnirxdquh2v76z8BT+JdC1i+03x1kR6hY634W1e4zbeLJKAPs2ivB9L+Nfwg1jwBrHxV074xfDnWvhlpRdtT+Itj8Q/Aeo/D7R3sp0juEn8YWDNpsUltO0cM6aywlhuGRYSLvyN3c+CfF3hvx/pOieLvB/iPw74t8L61aNquia/wCENatvEfhnVbOVHg/tPTvEelg6dq7yswieLcREHeRfmiUsAd/RRRQAUUUUAFFFFABRRRQAUUUUAFFFFABRRRQAVja/H5mk3IM1xb+W9rcefapYPcRG1vLe5EkZ1S2u7CIoYsm4uI4ltVDXKXmnyRJf22zRQB+CH7I3/BNn4wfs/fEf9o/9ofx7afsyfEX9p/x34t+P/wAQfgN44sk+P2s+Fvhz4s+OnxA+IPj7xv4Z1XRfGvxG1jRtB8IXGseMPCHg7WvFPwk+HPhX4rat4I0jx5pfjPxj4hivdF0PUOG+C/8AwTH/AGmPAH7DnhD9k/xR8Rv2dl8X/Az4t/Cj48fs+eIPCvwy8YaJ4E8YePPhL8WrP4hXPh79qHTdf8fXXiP4jeCPHviXSvB+ka/J8PrH4f3WiaBb6V4hkt/EvjfStL8Oar/Q3qUiw2N1M8iQJFC0rzu0arbpH873O6UrGGt1UzIZGVN6LuYDJH5RfEv/AIKW6T8Ofj58W/gr4k/ZY/aHuPCXwa1/9n7QPix8adIvv2cta+HfgLR/2l7u20b4b+NvF3hyb46WHxKuPBUXiG81bR/Fc+ieDNUvNN8OaXqWqy2T2tnOQAeST/sJ/tIeNf2dP2kpPH/jf4N6X+0z+03+0P8ABT9qFfDfgbR/inofwI8K+If2bdW+BHi74cfDu5u/E2r2/wASfGtj4lt/2f8ATtP+K/xJvfBXh3xPrviDx1fau/wrt7HwpLoPizw39pr/AIJtftuftC+NdJ/aD1/4v/BrUPjxe/CPXP2efiH4A8AfEP8AbU/Zo+BkPwo1Lxn4g+IOlwaN4s+CPxt/4WB4t1Lw94j1nxDZeP8AT/FmgyQfFjRl8EQ2/g34RP8ADoat4/8A060X9u/9jvxX8WD8CNL/AGo/ghe/GCXxz42+FsHwmg+Kvh658d3vxD+H8Vzp/jTwWfDQ8RXPiOyk8NXGm3Xh7xHbav4V0Nk8WkHSLq41MWscnK/D/wDb7/Zr8UfBX4s/tAeOPjX8DPhd8EvBHxk8dfCb/hakXx++G3jHwLd6homoadYaB4gbxt4cu7O18O+JvFdnr1jr48A+ILiLxpp2l3Xh570GAXCsAfHWkf8ABPb9oj4YaPd/Df4LD9ibx58IviX8G/2a/hh8XvCn7SXwx+LPj3w94Gv/ANm74W+F/hPbxeBPB48feID8UPhfrfh7w7p/jjwJ4C+JPxV8KeOPBfibXfGXjTUfil41PjeSx033rX/2Yf2qfA/7XHxZ+NnwM8d/BW2+Fn7Rvh34D+HPj1H4+0PxprvxX8E6V8DdM8Y6Hc2fwle21dvh/q/iz4ieH/Gl3ft4l+IGrWegfDzxZpsFzq3hf4g2mvz6jN7n4j/4KB/sQ6dpfxU1LUf2w/2dINK+C1voyfF+YfFXwvdaf8P7zxBHrOnaLbeLXXxMJbq21+6s9ZhstMtCuo6vdaTBptgG1C4tzXmfxf8A+Cnn7F3wR8O/szfEjxP8dPC178O/2r/GN14H+E3j7w9488F6p4YvrXTPD91qnizxzc6re+KUsW8DfD/XrHSPCXxC168z4s8L+LfEHhnRb9WtpJUAB+Uvwi/4IdfGTQPDuq/Cn4kfGT4f674H8B/s9eLfgD8EvG1n4p/bE+JnieKC68Q/D/xZ4FuNQ+CXxu/ajn+CPw28KeIbDwJ4TT4wfs/eBtKTQNWttL1a18G/ET4PaN4qS70f79/Z9/Yd+P8A4k+Of7SfxL/bg8K/sM/ET4Y/tQfCX4K/D7x98E/hn8FPFmpaHqmp/s9+M/H9/wDDPxJ4xvPjXqGqn4iLL4a8aXtvqumeN/BhbwtcaB8KND8B6kNJ+FEGo659ZeNv2/P2KvBGs/CG18X/ALVvwF8MX/x503SvEXwfi8Q/E/QNDsPiP4Y8SS3dj4R17wjfTa/d+Hp9L8QXtld6PpOsz28ya/q1zZ+HrMR3upQFftbTZHMkMZuJZ9p3v5j20txEZoJJIbeWHS0Fjb2phCzW9yxxO2xBl5EZgD4OT/glV/wTGRUin/4JufsFR26O9vBBH+yH+z42yyUGSKS5d/A2zc8qrjv5hHUnNS/8OqP+CWv/AEjc/YJ/8RE/Z1/+Yev0MooA/PP/AIdUf8Etf+kbn7BP/iIn7Ov/AMw9H/Dqj/glr/0jc/YJ/wDERP2df/mHr9DKKAPzz/4dUf8ABLX/AKRufsE/+Iifs6//ADD14f8AtNf8Ev8A/gmh4e/Zv+P/AIg8N/8ABO39hfSPEOhfBb4o61oeqaX+yb+zvZapp+raV4I1u/0+802/TwPu03ULe6t4pLLUx/yDbpYr48W5r9fK+f8A9rL/AJNY/aX/AOzf/jL/AOq68R0Afnp+zD/wS4/4Jo65+z3+z94h8Qf8E+f2JfEWtat8DPhZfaprniD9lf8AZ81bVdbudU8C+G7/AFDUtY1aTwRs8Qay+oKkk2uAASxXTxj5nJPv/wDw6o/4Ja/9I3P2Cf8AxET9nX/5h6+i/wBk/wD5Nd/Zu/7IB8Gf/VdeHq+gaAPzz/4dUf8ABLX/AKRufsE/+Iifs6//ADD1Wvf+CVv/AAS0gtLmZv8AgnF+wTbxxQyST3P/AAyV+ztB9mtkUtdXRlHgVtotrcSzsGUo4jKSYRmI/RWsrW5orfSr2WdxFbrGouZCls6JavIiXLS/bf8AQ44BA0hnnu/9Ft4d9xcAwxuKAP5+/wBv7/ggT+xt+2B8GvD/AMKfgR8B/wBmD9jvXR8XvBniXxZ8WPhd+zB8G/D3jiL4ceD5PEMXirwb4btvh94d0WyvdQ8S6ldaWUfxFeXWl21vdyz6voviHTre68N6j9ufsB/8Eyv2Rf8Agmf8O77wJ+zR4Lm0DW/EFhpkPxF+JHjXWrvXPHfxH1Szs71or7xJr97Da22g6bb2djLqdr4R+HWjeDvCmjl47k+GoY4ZZ19F/Zw/b3/ZQ/aU+J3xm+Bvwq+Nnh/XPjb8CfiH49+HnxX+EWrajqGg/EXQPEHw78S6n4X8R69Y+H9U26l4g8HzavYXCWfiXwyH8F3ABS0dXlAr6R8a/EHwX4Ik0/SfEXjfwx4d8QeLrmLSPB+j+Itf8I+HL/xLrF/MtpYW+j6VqE0Gsa+0VzLHPPp1il5qGowRS2lnper3U0WmXgB8P/GT/gmn+zX+0V8coP2hvin8Kvhl458Vahd/Dm41bT/HvwZ+H3iH/hKtI+F/gr4r+EtG8JeMNR1zTtS1i3stW1X4sWXiPxEIbOWa3sPhd8PNHKRnwsssf0t4t+CPhnxT8Yfh18aNRbVZdT+FPw5+Nnw58L+GJLfTl8O+INB+NNz8KtQ8SJ4k0vWfDGnvZz2N98JNHstGisb+DTEsPEHiddXSbSDe2x+fPjf+234d+Fv7S3hf9mOy8A+NvHfjXxJ4N8P/ABRudM8NeLPBVh4ouvBuueLNa8AWl54J8H+I/il8P/HHxU8ReGvEWjeJPEnxK0P4c6X4uX4OeA9K8O674/vdEvfG3wp0Kbz7SP8Agqj+zxeeN/EWk6xNrXhDwFoGt/tM/Dux+MV945+FF7oPiXxX+yhovj7xF8cZrXwF4J8b+I/idofhPRrP4NfGO58PeN/E3w402z1KH4X+IdVsLex0Txb4NvvigAR+H/8AgmD8PYdI0bwF4x+Lfx2+Ifhr4c/Bq1/Z5+BUPiG3+GdjdfCH4Hf8Jb8EPGF5pf8Aa2lfDnw7aePvGHiu9/Z/+HHh3VvGPi6w8QalpPw08C+EvDH/ABIvHFz418VfFf6v8K/AGD4XfCLxj8O/Afj7xh4ZfxJ40+P/AMULLx/oknw3vPHfgHxL+0F8bPH/AMe/Fs/g638a/Cfxh8M5bfw74w+JF2fDh8beHdY8MRw+HPCcmtWjWkcsyfE+u/8ABQH45L4o/ZJ8Mwfsk/F/4cN8ev2h/hr4Q8YXfxP/AOEFTS4PhP8AEL4N/Gr4hPcQeI9H/aHbTfBfxd8Ja38OU8XePPAlzP8AFC78N/DHS59I0DR/HqeK/AOtali/DH/gpL4RHwg8J+Om+GX7S/xQ8C+FfgJ+z78ZP2kPjb4i0D4Q+EYvAPgf4maNdomteLPB+leNPCUfibxDpemac/xI+IXgX4BeFfEHhPwh8M5pp/Cdr4j8baze/DHxKAffXxe/Z98P/tA3n7P2peLNa8Z+HLj4FfG7Q/j/AOCNP0O/tLebX9d8JeF/F/hDTNP8VWuv6fq1+fCT2PxI1lNejuLGz8Si9h8MSajdaKp1bw1dfN3ib/gnD8INe+DXgn4Lav41+KI8IeBf2B/H3/BP6ObTNV8OW+t6z8HfiBoPwQ0b/hOtbnvPA2rWcPxG0u1+Dthb6bcatpOoaHFaeIfG0urWN5pK3kDbngz9vrR/Hvxg0v4WWPwS+Ovh/wAKeL/j38eP2XvCnxr8SwfCu28HeMPjh+z54Z+J3iPxVZ6F4b0T4k698Qk8ITaB8GfH7eGvHUHhbQtDf4heE7zwJ4msfCHjDV4bNfrvT9U1uXx9qGhw+D/FUfhqy8NaFruj+Mri98MReDdX1W/8Qa3YT+DvDXhy98SDxvpPiXw3pPgvTdTuLvWfhhp3w9bQfF2hyeAviLeeJB8RlIB8TeDv2GJvAXxCufHX/C9fitfeDr/4h+I/i74h+E91ofw88O6H45+MPjHw1P4a+JN74y8beEvhlp/xBu/hl8Q9a1TVfih4p+Hum3k/gofFEX3jnSJND+DGkeHPhLonwZ+z5/wTw+MXxC1PTNB+MqftJ/CH4UfCP9k3Tf2efhj4a+KnxH/Y9+JXiD4T+PPBXx7+CPxh+E/iz9nbWPg74Ch0fxr4D+Besfs2eBLO68S/tL2kPiz4qaRpHwxsPHPwY8PazoHxKs/Efqt1+0N8c7P9rY+Dfix8edV+Amr61+0lffCz4c/s1/E34BadpX7LHxx/Zwk8cponhG++Ff7Vtl4A8bS+K/jl8RPhFrun/EPRvCN18WPD+nat+0PbL+zlrHwhGkQXvi7T7Hw0/wCCmPxT8ZfCux07xd+zl8WdL+LnjdP23tdvfEXgTXfgTqnh34NfBL9nD4+ap8H9Q+LeqTeK/ihc6X4+tvAt7rPh7RrXwfo8HxL1j4k+L/C/jfVvDmi33wt1Hwd4k8eAH3B8Df2OLPwL8QfBXxJ8afF74rfFD4h+GfE3jvx5Z3HiG08N6H4I0658f/DvRfhdreh+D/A+i6Emj/DbwPaaV4W0zV7HwtoMHhbxH4j+IGreNfiF8QdZ8beIvEOpRaX+hdfjb4O/4KJ6bqvimw8MD4P/ALRWoeAR4y/Zs/Z+8WftAXsPwp0rwdafFv8AaY+Dvwb8b/CXRrTwta/FbVvElkmrxfHnwJB8Qbjw98L47LwV4x8ReFYNS1HxRoUWo33h/wBu/Zy/bl0b47fFLwH4f074S/FPw94I+N/hn4n/ABQ+APxl15vhyPAPxe+G/wANtS0Dw3L4lstA0nx4/wARfBE3jKz8UeH/ABh8LrLxn4Q1KfxN8KDBrU83hPxXH468FeEAD9JK4f4l+FNF8d/D/wAYeCfET67FoXi7QNR8N6vL4X8Q+IvCXiWKw1qBtOuZfD3ifwhqGk+K/D+txRXDSaVq/hnUbTX7C+WC50iUahHbg9xRQB/HL+yj/wAG1Gl/sz/8FJ9P/aC8H/Gz4s+M/wBljXfCHxUsdVi0v43/AB5+BP7TXgrxT40s7TVfDUL/ABq+A3xL8AeKviH8Obi9tfEllqOtWviPwfr93rdzb6T49+HOvTJd+Lrf+hP/AIdtfs/f9FH/AG+f/Fqv/BVL/wCjHr9B6KAPzwuv+CcfwHs4vtVn8Qf29bi4glt5Ehl/4Kn/APBUu4R1W4i83/Rbv9r67s7tli3tHZ30BsLuRVtr6W3tJZriL4X/AGf/ANgv4La1+1/+3ToE3jT9s+G28L+M/gHps1xpP/BSf/goTpOvpDqH7Pvh7VYTrni/Qv2k/CXj7x5HJNFGsN5478R+O7/w0zroXhuCw8NPPeW376v90/h/MV+f37NH/J6v/BRz/sc/2bf/AFnzw1QBH/w7a/Z+/wCij/t8/wDi1X/gql/9GPR/w7a/Z+/6KP8At8/+LVf+CqX/ANGPX6D0UAfnx/w7a/Z+/wCij/t8/wDi1X/gql/9GPR/w7a/Z+/6KP8At8/+LVf+CqX/ANGPX6D0UAfnx/w7a/Z+/wCij/t8/wDi1X/gql/9GPR/w7a/Z+/6KP8At8/+LVf+CqX/ANGPX6D0UAfnx/w7a/Z+/wCij/t8/wDi1X/gql/9GPUFz/wTf/Z9iglLfET9vZ0kX7O6v/wVO/4KmXAMd2RayFI7n9sG4txMqTM0E08flW8wjneSFYjNH+h1FAH53+Gv2VbP4DQeMPiL8BtQ+OXxG+KCfD3xI3gjwn+0H+3F+2Z8XPhdrWtXpGpeFtE1LT/jT8Vf2h/D3hLUNW1nSbKw1T4j+D9El1Wzgml1e20q8uZ4LZ/yi/YR/wCCXv7V37NPjLw9H+0J4o8I/HH4JfHH9kTxb8Gf2zvDHiP4i+DvFbad8X7n4pfEP4raTqfw58DeB/2Qfh5N8V9Hn1vxx8R9ZvNW+LXxE1Lx9aXnxy8V2Gl3uv614L0/UviV/TbRQB/M14I/4Jp/GTxv/wAEyfif+wn40/ZC/Yd+DvjLw98BPhH8OPDPj/wjrcfjKx+Pnxx+EPhe3stS+NfjK68O/BbwLrnhGHxtbWUWi6B4702x8dfEn4Y6v4n8eyQ6N4i+wrpN/rftLfsW/tFftG/s/wDwS+F1p/wTx/4J6+BPD3wy/az8O/He6+BX/C51h8NWvw1+G+reE9b8TeFL+Twr+wRfeHJvF/xm1OPx14O+IWqeArC68P8Ahnw5H4L0y+1T4hXPiXxRFpf9J9FAH4G/HX9kv46wfEn9hvxN+zN+xP8AsSeGNS/ZW8TJ8dJ0X4un4VP4P174hfDP4+eDvi3+z78LtU8Efsb/ABBXRfhhqvjn4r6T8WtQ+JWvt4Yf4pfEaz1LxLdfC2xbQvPi+f8A4xf8E9f2rviz+0/+2J42n/Z5/ZGhh/at+Ln7PHiD4c/tfSfFPxRF+0p+yh4P/Z/8BfCHw9Y+J/D3h6+/Z2s73UPFuvah8OtZ8c+ANK8FfETwNYeDviLfS6H4y8Sax4QtNeutB/pyooA/nN+G/wCwP+0Z8Pv2j/hNp+lfs+fst6Z8AvgD+1t+2L8aPDnxc0H4jXui/E3xJ8Cf2pLL9ojXI/hF4P8Ah3pnwXfQNCt/h7r3x3s7Vvht43+Is3wv8Z/2Mup6hpt9Ez+J7PzKL/glr8cf+Ga/2xv2O/AfwF/Yz+Bfhj4nQfHi28C/tTfD/wAWWWm/En42+CPiR+0jqX7RHgL4ReIPA/gz9mTSdX+H3wYudD162/Z5+Idnqvjf42aVF4d0fRbjwd8OvG+iofCOu/0/0UAfyaWf/BKL9pTSv2d/2ktAX4ReFP7Z+NHxd/Zi8ean8Ltf/a28CeF49SuPgG/jzWtQ8X/D+y/Zr/YJ+Dn7PPw8+LOua43wv8M6RF4x+Bnxl8OfEg+BPDcvjbw7olz8NfBccP7V/wDBMr4A/FT9mX9mbwx8KPi3p3gHR/ENr8Rvjj4l0/Rvh7B4bkg8O+GPHfxR8YeOPDmg+K9a8A/Cv4OeC/FfjW3j17UX8XeLtB+G3w/0DUNaQRweGI76eOcfpBRQAUUUUAFFFFABRRRQAUUUUAFFFFABRRRQAUUUUAFFFFAGN4hhkn0XUo4kkklNs7RRwLI1w0kZEkYtvJ1PRZlut6D7NJDq2nzRT+XJFdQyKrD8R9W/4Jl6j43/AOClfjH9sX4w2HwL+Inwl1Sy+DM/gnwcbH45W3j3wj4k+Cfgqzl+HniTULSw+JGj/s8eNJfC/wASZ9W8S6O/xE+EnivStDg0jwprngu18CeL9N8e6te/ujRQB+O37P37LP7VXwv/AGr/ANrT42+OvFH7J1x4U/ah8Y2vieC28M/DP4up8XNDT4Y/CLwb8JPhDot5411zx1p0V/puneHfDVt4z8X21hosfiGTxr4u8YW/gm/0fR5V1Wx81+Af7Av7RU3hD9uH4L/toeL/ANmz4ifBb9trxF8W/HXxB8PfArwr8SfBvjO38V+PtB8C+AtfvPD+s/ErXNU0TT7LTfDHh+z1DTfES6fd+L9B+J9toOty+O3jsGC/unRQB/P9P/wTm/a3/wCGPL34bw/tPeHPEX7WXxA/aM0P9oH9of4q61cfFf4e+EP2mJ9C8O2vw+8LfDDX/EXw08V6Z8X/AIQ+B/DXgXw58G9LTV/hb42v9a8S658PtSltZdIg+MN1f2WR4V/4J7ftd+B/2RfhD8KNO+KPwG8VfGb9mb9tPVP2rvgVZ69bfHef4ceKbbxfrvxc8XX3gD4peMvFut+NfjC/jq+1P4//ABC1aL4jan4m8Va9baD4f+HF1480rX/F6eN/if4u/oYooA/mO/ah/wCCUP7WX7THjrxx8V9e+K3wZ1bXf2j/AIUeB/hb+0r4P1XWP2yfgP8ABySx8DeIvFt74RvfDHw5+Df7Veh3vxY+HyeEviBD4U17wp8eb7QfiDo3xM8Ea98TPC9x4f0T4oN8INE/XPxn+xR8I/ih4+bxb4q8bftiaRq3iDSdPW707wD+3z+378E/D8J0fTodP0uSHwB8Gv2i/APgKxvpNOtZJvE2oeH/AA7on2/xNdXut+Kz4o8TeKhrw+/qKAPz4/4dtfs/f9FH/b5/8Wq/8FUv/ox6P+HbX7P3/RR/2+f/ABar/wAFUv8A6Mev0HooA/Pj/h21+z9/0Uf9vn/xar/wVS/+jHo/4dtfs/f9FH/b5/8AFqv/AAVS/wDox6/QeigD8+P+HbX7P3/RR/2+f/Fqv/BVL/6MevDP2n/+CenwK8Ofs3fH7xBp3xA/bluL7Q/gz8TNXtItc/4Kj/8ABTjU9GafTvBus3cZ1XTPEv7Wur+G9T09GhEl3p3iLT59Bv4Fe01kw6bNc3EX69V87ftfQ2tx+yh+0zDfRNPYyfAH4vrewLtBms/+EA8QG6h3MkmwSwCSMyIpmjDF4CsyxsoB+fn7Nf8AwTv+Cms/Af8AZ11S6+If7asBv/gf8MtQ1aLw9/wUm/4KT+F9N/tDVvh/4fvj/YOm+F/21dO0Xw7ogZcx6B4Y0Kfw/C+2KwFvBYmSH6F/4dtfs/f9FH/b5/8AFqv/AAVS/wDox6/Pf9mj/ghV/wAEtfE/wC+AfijX/wBlOTUNW8S/Bf4b6jquof8AC8v2ik+1XeseCPD+szTC0HxU0KzsN8yZ8rSNKMIB8vakQZ199/4cE/8ABJf/AKNJk/8AD5/tGf8Az4qAPov/AIdtfs/f9FH/AG+f/Fqv/BVL/wCjHqC6/wCCbn7P4gcL8RP2+HaTbAFb/gqv/wAFSUU/aHWAl2vP2xJINiiTc4aN5GQMsCNOYgfnv/hwT/wSX/6NJk/8Pn+0Z/8APio/4cE/8El/+jSZP/D5/tGf/PioA/HX9mP/AINootP/AG7/AI2ftqftBfHP4kDwzP8AtN/FP4l/s7fDPwF8W/jFpnxbXQNa8QalqXwt1f46/tJ+JNai+MU/iW80LXI4vGD6fr/jD4l6jM2habrfxYmu7zx74H1b+n/xn8CfhX491PwZ4o8f/CvwH461X4aeJJ/Efw61zx/4J0Xxfr/gjW5dX0bX7XxDoOo+KPCfizX/AAxrVnqmg6fdNqWhXttHfXEP/CY6teWfi2wsb+2+Cv8AhwT/AMEl/wDo0mT/AMPn+0Z/8+Kj/hwT/wAEl/8Ao0mT/wAPn+0Z/wDPioA7v9rz9hVv2s/EmjW2t/F7UtI8ER+H/DeleI/COvfDzQfHWoaDaeDvHOs+NtL8Xfs9+NPFl+/xA/Zl/aA1eyvtU8KeJvizpFp4w1PxB4asfh/rvhfTNM1j4Vadf2HE+Gf+CZfwz0/xb4uh1HVo7n4PeJdZ/aA1q++E9p8IfhVa+JLjW/2prb4wad8YvDHiz4v6L4ah+JXiD4JaXofxw8Saj4F+Hd5pek+I/D2s6hpcd38YvH/grT/D1hp1C8/4IF/8EmEgLL+yNJK4ltjHH/wvn9o+33S/aYvKHmr8Yv8AnptPlv8AupseTN+6kevLfDP/AARV/wCCOHir4g+O/Aemfs4y6j4r8Bx+Fj478Pn4pftUaMNHh8Waff674IVr/W/jB/ZF3Hc6TpGpRO3gtnkljkZNQCWLXS0AfRGj/sT/ABA1K++EWvfEP9rL4s/EPxN8DfHnwp8V/Dq5vPCPhLQNGi0j4E+D/i58Ob228d+G9On1TwVL8a/ir4U+P3ii0+MHxT8LL4U0nxJdeE/hbbW3wj8MeHPhh410Lxn5dp3/AAS7sNO+HK/Bbwp8cPGWg/BvxH8Cfg1+zX+0p4Pj8I+GLq8+Nvg74WaLb+HrZ9D1a6TSpPhFrvxH8K3Ov/Dr4krpWv8Aj/RPEfgC78G6j4V8JaD4lk0z4gax+eHxH/4J8f8ABN3Rv2gvjr+z/wDCf/glH44+PTfs4+DvhN42+Jd54e/bI+IXhnVtT0b4yp4317TPCXw28B+K/jrocfjTxjNpXw88cR+HvDWp63oena9rTWek6nrWlWV5Pf23onhn9hf/AIIIeJfC1v8AFvVvgn8P/DvwL8R/Cv4L/Fzw58XPHH7X3xK8NaXqmgfHn/hLtV8J6DrHhXxH+0HZa74Km1M6Xb2ekab46ttI1bxh4t1G70jwlo+pzfDvxW/gwA/Xzwl+xz4d8Lan8M76LxjrF6vwr/bD/aA/bG0q2/syzmudX1b9onwj+1n4V1TwVdXGpr9rfRNG0v8AaS1q8svEOjM3jHUrzw1b2N839m3d0F+l9L0TxVZ+Ndc1k+MNQ1HwpL4Q8JeHdF+HbaZpNwui+KvDniDxHf654tXxZPFL411tvEth4p8J6aJNdjOlwP4SPiW7xZ+Jrh2/B6b/AIJo/wDBvzpd/wCBfD3iqy/Z90jVfi14Y8Hav8NdNuf22/ibnx54a+IN1e+H/Bmv+CLfX/2gb2fxh4f8f6x4b8RxeAPFGiWsy+P59J1SGM7dFaReLtf2Bf8Aggrp3gbXPG3xU+EPwx+ANpbfHX9oD4UabdfGb9r34ueGdP17xN8Afin4g+EXjHW/D03jb40Qwf8ACNS3fh7S9evtD04iPS/AuraDqIObZEIB+kN9+w74u8V+M9Q0TxP+058Q9X/Zq1b9oHRv2jNV/Zz1zwR4Mu9Xi+J3h/4z6J+0HZ+EYfi5qD3PiKL4V6j8d/DuqePpPhq8es3tz4ZudE8EaD8QrX4YaJoXg7UJvBH/AAT60Hwxf+Jkn+Lvi7xHp3irwP8At5fDbQ7G/wBC0G3tvDXhX9uH4weDfj14mMeqAE65q/w58X2fiWw0jVDg+KPC/jW7vWAPhsqflB/+CPH/AARTm/tKaH4NeArOy0bxpb/DLVbyX9q/41Q2mjfFDVE0QWHw/wBdl074+6fo9h8Rry68RaFO/wANnvoLzxNput6Hq+nie9+xwy+dfEb/AIJHf8Eu/B/jHUPhz4E/YV1Txz8QdP8A2ffib8c5vDY+Pf7TOjPpejeG5vCejeCvAOu6zZfFHUdOOv8AxT8cyarb+CvCV5r8FpbeHfC/xOvdJ81o57aUA/R3QP2D/Cmi+Dtc8IxeO/EcWn3n7T37JH7Tsmqy2WiRGS+/ZL8BfsvfCzRtBMqW908Vp4v8N/spaPq95d26R3FlaeIria1vdOniS+t/lb9h/wDZ2/aO8E/tUfCVvFvgn4t/DD4B/s0/Bn9pP4UeAvAfxE8SfAPxj4I8OL8TfGPwG8ReEPC3wX8dfDDxlf8AxE+KfhHw3onhHXtMt/G3xl+Hnw58b+GfDmn+FPBl/ZeI9cuvGGuI74Xf8ESP+CNnxZ8CeAvip4J/Zcg1rwf8Q/BPhbxr4N1tfjJ+0XYz6n4P8a+GtG8S+F5vO/4XGxvmuNEuLO8d9zYEhY8qSfSf+HBP/BJf/o0mT/w+f7Rn/wA+KgD9kqK/G3/hwT/wSX/6NJk/8Pn+0Z/8+Kj/AIcE/wDBJf8A6NJk/wDD5/tGf/PioA/ZKivxt/4cE/8ABJf/AKNJk/8AD5/tGf8Az4qP+HBP/BJf/o0mT/w+f7Rn/wA+KgD9kH+6fw/mK/P79mj/AJPV/wCCjn/Y5/s2/wDrPnhqvmqf/ggf/wAEmbZBcR/slussEsE0G747/tFwg3EU8b26GRvjLGB5k6xpgth92wq4bY2n/wAE1f2aPgr+yV+0H+3/APBb9nvwKPh78LPD3xC+AV9o/h8eJPEniURahrfwB8OX2tOLzxPqGvXxzffxNq249y4O1gD9haKKKACiiigAooooAKKKKACiiigAooooAKKKKACiiigAooooAKKKKACiiigAooooAKKKKACiiigAooooAKKKKACiiigAooooAKKKKACiiigAooooAKKKKACiiigAr5//AGsv+TWP2l/+zf8A4y/+q68R19AV8/8A7WX/ACax+0v/ANm//GX/ANV14joAT9k//k139m7/ALIB8Gf/AFXXh6voGvn79k//AJNd/Zu/7IB8Gf8A1XXh6voGgAooooAKKKKAMvWkuH0y7S1kaGdkUJOjRq8A8xPMnRZ4Z7aVoY98i212i2V0VFteT21rLNcRfl98Af8AgmB8Af2d/wBq34k/tO+GbDxReeIPFk+jnwPo2s/EH41eIbL4dPD4d17TvFixQeOPi9460HxkfEsmvX1/b3U/g20v/CMzx6Z4VjsdAiNzbfqrRQB+L+teGf2vvgh+2j+2N8Ufg9+yrqvxt0f9pb4Y/so+H/AHim/+Mvwz8BeB9A8V/B/Svi9pniW7+KsviTxbrXxUsvBtpqPj/QJdZfwB8JPHWtjTo5lsvB/iBnOlXXytb/8ABPT43/BzQ/Aaad4b8d/EuX4M/Bb9gLwH4Q+IH7N/xV+HXwc+N2h/ET4G/C79s/4bfFvx58AbT4kaZ4f+DWta2B8dPC3gTT/hj8etS0TwD4l+FXjfxKb7xjrHxE8K6B4Kt/6Pb87bSaQGQGAJcjypPKZjayJcCN37QymIR3A/igaRP4q+IvGH7VPw88MftYfDv9lHVNK1+X4i+PvhlrPivQ/FNhoyzeAtJ1oL8Sb/AMFfDfWNSaCdo/GHjPwp8Ef2h9d8HLHE80+h/C74mQ25jnljdAD8Np/g/wDtVeJfEX7Sv7Kuu/AXwt49+KXx6/4JWfs8/ADxb8ZfCc/wW+G3g/8AZxtvi/8AtB/8FNNM8PeIfFFho974O1fxFqcHhXUdI8WfEm6/Zl+Hmr23ij42fCzR734Z/DrTfBPjnwl4u+GPs/xN/ZJ/bQ/s/wCIXgjwN4c1vVvDHxo1P/gpPodzrnwh8TfssaFr+ot+07+0x4n8b+C5Pjn8SPit4Ufxx4X/AGd5/B9xa6j4p8Nfstxy/GO1+IWp+In1eN3Hg8D9cPGf7U/wT8HfHr4Tfs9QeNfCOq/HH4n+O7v4e33gHRvG/hzV/iN4O+yfBb40/tAeF9d8e+GT490zx14Z8MeIfCfwx8RxeHDq2hzWVzrXirTIMw20zXMa/CT9r34EfHv4yeOfhH8H/HWjfFLUfh54J8I/E/W/H/gjV/C3i3wFBB4p+IvxU8A/8K//AOEn0PxRqcC+LNJ134T+Ltbl8MaxbSNo2j6noOpIEurKKSIA/L39n74Y+K9X/bq+HXwykvNEh8LfBv4LfAL9qT9oX4fx61pXjrxj8L/259O/Z5vf2U/Bdn8WGtLzUZFuPEfwHW21zwxHd+K/Fsut6t8CvBXxJ8Iyat4J1yHVPC/3nqHiLTPhJ+3N8cvH/wAQr2TRvAfjf9hn4RanbavrF2uoaRo+kfsk/FX9pbX/AItW0lsF3WOr3ng/9pT4d69eRjdiygnDBmwR2cH7S3w48JeN/EUGi+CZ49Eu/wBpHwl+y943+L1vpWkaVpw+Jtx4H0y18M6zrmpWw+0+NvCmg+OfEHwp/Zjl8Tq3/Ej+MniO/wDh44C+HpSfrPUNE8Oa9/omqaVpl6Ws47G0SbSlN3pmm6tbT6ZJaWeolQY13QapLJtI8yEvDwGFAHyb/wAE5vhz4u+C37Fv7HHwp+IFvqtt468I/s6fD7S/G2n+J7Py/F3h/wAX6j4S8P67rPhfVJd2Fk8J3pvtA1zjm7h8PKeW4+9awNMvrO4khFiYmW4tob+NVGDHp0kP2SHaPQzWUakZwACAPlzW/QAUUUUAFFFFADX+6fw/mK/P79mj/k9X/go5/wBjn+zb/wCs+eGq/QF/un8P5ivz+/Zo/wCT1f8Ago5/2Of7Nv8A6z54aoA/QOiiigAooooAKKKKACig9Dzj3qsLm385YBNmVt21M5J2qzHjHZVJ/CgCzRRRQAUUVDcAmMBSgJmt8l13qV+0Rblx/eZcqh/hcq3agCaiuFj17w7ZeI9D0K4v7W21jXodXGiabeagEv7w+E/NtL02FiTmVY7S8uLibZwkKPKyny8r3VABRRRQAUUUUAFFFFABRRRQAUUUUAFFFFABRRRQAUUUUAFFFFABRRRQAUUUUAFFFFABRRRQAUUUUAFFFFABRRRQAV8//tZf8msftL/9m/8Axl/9V14jr6Ar5/8A2sv+TWP2l/8As3/4y/8AquvEdACfsn/8mu/s3f8AZAPgz/6rrw9X0DXz9+yf/wAmu/s3f9kA+DP/AKrrw9X0DQAUUUUAFFFFABWRryyto9+IZ/s0ggLedsndVRGVpUkFpHJdiGWIPFO9n5V5HC7yWlzaXCxXUOvRQB8i6T8MfjDD8VPFXxDu/j58UNR8Aan4fTStF+AWreDPghp3w68JeJYbDwRbXvjHT/EnhbwDqXxr8Q6w+q6B4k1KSDXPiRqkS614i186c+laBH4QvbP8lfiL+xR+1x4suPjz+1lonjDxjoPxs0T9pqx+N/wN/ZVtk+AOp+GfG2h/sw+NLfwd8C/DPif4r6p4M8WeLPDHiD4y/C7RvE3ia+0lvjV4a8J+H9W/aL8R6j8V9Y8Ka1afEDVrD+g/W5DFpd1KucxLHJjfDGjiOaN2jnee3u1FpIoKXnlWtzdm1aYWNvNem3jb4Bv/ANsLxhf/ABb+KXwy+Gf7In7SHxjtvg3478MfCjx3468Ia5+yR4V+Hlp408bfCX4XfHO60w2nxp/ag+Gfxav4tO+H3xm+Hd3rktp8KtMmiu4PFU+lW2uXMdvpt6AfmL4//ZA/aF+JWrWPwW8JfAHWfhxr/h/9pn/gpR8UI/237bxd8JbfTtL8E/tgfs4ftj+Dfh3d6PeaN41H7UE3j3w14j+OnwM+HHieCT4Y63p4sPgd4C8eab4k8WeCNG+GerL9j/sRfDH4k23x98Y/FTVf2UdY/ZS8IX/7Fv7Kf7PWjaZrms/s+3tvqHjX4B+L/wBogasPB+m/Bnxj43u7/wCHnhLw78S/BHh/wJ4u1m58H2V9oGlaZa+E/Aun+GZreeH68+Kv7Unwt+EHjbwJ8K7vxLDrvxT+JXjW18E6Z4C0bUvCV14p0m81DwT8VvG2jeIvGvhxtW0DWfD3gvXPD3wp8XmDx5rEem6E9xo0LR6re2waGZ/wc/ad+H3xq8a+Ivh14aS50rxZ4G8AfDPxr8QfCOrTaNq2r+Fbf4waE3ifwL4Vnfwdq/ivwt4mv9H8MiGfxNr3gXxN4g+G4udU0D/hDPH3jVV8QppAB+bfinw74gv/ANk34gfs6afqV7pHxh1H/grnrGi28dpYfavEukp8TP8AgpvpX7dPhTUNHtySJbXwP+yL4vsfjNquWUR6J4Pv5M5jJb9wNNiEd9Afs9vatEskC4j+yRLDeWNnK9lZ25JLTifTFluAB+7jtpD0wB8bL8c/ghJ8RfCesXPgF5kvP2gdb/Z50n4xXnhzw9qGkWnxl8OfDPxKLDULbxcx/tuLw1cTXfxa+Blz4+hHmN8Wn1n4bSn7Nr1xn7S0+WKa7RkJbLXqRrJAsr2jafL9gv7FLsElY1vCsiHo6qU6EAAHRVnaqENhOJFu2izAZhY5+1iEXERmaDZ/pG9Yg7f6F/xMdoP9m/6f9mrRooA/g7/4LLat/wAF5bb9t39mmLx3HoemfsGH9qz4Hx/DzUP2fP8AhMB8Er++b4veDk8LJ+2AbI/8LFMy3X9mHXh4r/4s4doHwmH9qi9z/U9Zf8PQRqflwS/sGTxp57wSY/aQEogeS52/bRZD+zRCQVHh8S4/4lQfYPN25/SR0V1KN0OM/gQR+opFATCDocn6f5xQB8Af8bSP+rCf/Ni6P+NpH/VhP/mxdfoFRQB+fUn/AA9G2Pv/AOGCdu1v+jicbsHZu3/Ls37fMz/Buxzivhj9nT/h4t/w15/wUG/sH/hiL/hKP+E5/Zz/AOEz+1/8NC/2F5//AAzx4b/sf+xdnzeZ/YP9jebjjy92e9fvU/3T+H8xX5/fs0f8nq/8FHP+xz/Zt/8AWfPDVAC/8bSP+rCf/Ni6P+NpH/VhP/mxdfoFRQB+fv8AxtI/6sJ/82Lo/wCNpH/VhP8A5sXX6BUUAfn7/wAbSP8Aqwn/AM2Lo/42kf8AVhP/AJsXX6BUUAfCGhj/AIKOnXvD/wDwncX7Ek/gr/hINC/4S2Dwwnx4fxNP4c/taz/tqDw1/bWNGj8Qzaf9oj0OfVv+JZb6o1pPf5tI5RX4Wa/p/wAKpfj9458O31p8QPD3/BXWf/gpPol/8NfGdnD43tfipZ/sjD46aPL4Z8b+EfF2kaR4h8Jal+ytpX/BPRdX8OfFyz8aeHfEXw1k+KV34stvi34e1342SWuk3f8AWFWF4nsItV8O61pk19qOlxajpt3Yvqej3Udjq2mrdwtb/wBoaZfS/LZahZeZ9ps7tP31tcRRzW/79I6AP47/ANl7/goZ+374s+AWj/EX4afFz4+ftiftHz/s7ftXeKfi18D/ABf+xPonw0+HvwW/4Qf4W+P/ABx8APEXw2+JPw3+FvhTwr8QPG/ib4h6T8NvCGlfDHT/ABh8Q9H+MPhf4p3l7pfgDwXrXw2tLKDZ/Z6/4KCftSat+zH/AMFBPFPif9qLStR0f4I/s1+DPiP8LPi14Q1f4J/G3xb8OvjZf6Xq8Vn8Mry7+HP7JHhj4EXHgH4l+Ktd8O6f4K+FPi/wAfiD8ObHxB4q0bWLyHw1B4Y03wb/AEhfsW/sq/D79jD4Z2PwH+E+tfFDWfh14f1LVrvwrY/E7xv4j8d3/gXSLqHT4T4J0LXfFCi9l8C22q2eoat4MtLX/RraPUtYEfyKS32lQB/JN45/bn+Nvgr9ij4D/HBP+ChfjT42eJfj38RfCfgzxp8YtK8AfBP9lv4H/BPxR4a+GXjb4j/Fn4Rt488R/sq/GNvAeh+Ilv8Aw14Z+HfiPVfgX8VfjZceIPDdza+EPFdhe3nijQGtfEb9oXxb8b/2If8Agkh+2B8Sv2w/G3wOHgX9qCXwl+0R8ZPDvwo+Gctp4P8AElz+zz+1V8I5fiD4y0fxV+z7Hpfg/wAWaNrDWvw8it4vCumfCTSfFfxh8RzaH4MvvFGnfB3XfCf9Z9FAH8zHxT/by/Z8+Hv7Zn/BM/xxP+14ut+ANd+GPxF8PfElfi18GvBuiavZeFdQ+EHi208E/HbTdZP7NXw28f8Aww8UfHnxz4T8NaH4nsdN8X+EPhB428P+H/h1NoXwl1jQ77wbraa4/bc+OVn+2veeC779oPxzZfFXSf22/EPwQvv+CdjfAHQrvwZp/wCyBFrL22m/tPT/ABSg8IQfEmyt7n4Rp4f/AGkovitq3xpHwr0KfVovhFf+C9G0zTru7g/pQooA/k0/ZM/4KB/G218JfDn4nfEb9tfxt8bT8Zf2bv8AgqF4x03wv41+BHwc0HRPD+ufsZ/ErRb/AOFev6R4X+C/wX+HnjHXvG/jb4YT/EPx18QPAt54vsNM8c2UGn6fol54Q1/w5Zf2/wDaH/BFv9qr4/ftFeMf2l/D/wAYPj8f2gtL+G+kfA1NK8T6HcfCvxX8OLHxrrY+Mi/FWLwZ41+HvwW/Zt8Y+GJtV1Ow8IvL+zr8ZPhFdeL/AIJeGtG8MXT/ABE8Zt8QRB4V/fuigAooooAKKKKACiiigAooooAKKKKACiiigAooooAKKKKACiiigAooooAKKKKACiiigAooooAKKKKACiiigAr5/wD2sv8Ak1j9pf8A7N/+Mv8A6rrxHX0BXz/+1l/yax+0v/2b/wDGX/1XXiOgBP2T/wDk139m7/sgHwZ/9V14er6Br5+/ZP8A+TXf2bv+yAfBn/1XXh6voGgAooooAKKKKACqGphzYziNtrt5Sq22ZtpaaNcj7PJFcIQDkSwOJoTiaINIiqU1a4trPTru7vZDDaWkJurmcGUfZ4bYieS4zDHLIBbrGZiQhGEO8qm5l/O39pH9u34GfsyXXivw/wCM/EtjL458NfBb4xfFmb4c+GfEng2Hxn9h+Edt4K1GXwa1jq3juC9bxd8SW+IPgu1+CEX/AAjM0S2t/qD3E2lwGW+swD2S/wDhR8bJvjna/ESz/aW8a23wXl0qbStQ/Zoi+Gvw5XR7vV5dPubRPEc3xTXwtpPxnJW8lt9QjEnjvSLc3FqkEsl7ZzXGn3n5i6j8MvEvhr9rf9rPxr4y/Ze/4KGeOF+Ivxx+G3jf4aeMf2a/2pdZ+F/wg8X+DNH/AGVP2fPh1bXfiz4QeC/20vgN4P1nxRofi74bfEPwl461bxH8JZ08QeHNI+HWl6b461y0vPAthdfd37Q/7YmhfAHXPgV4Y0j4RfGn48eKvj/q/jnSfAXhz4J6j8GtGlu7DwF4CvviT4g1GLxT8b/j/wDAb4Y6T4Rg8IaJqOpW9/pXjTxO0USRbhZTmOeLpvhl+1l8MviJ4L8X+KfEmn698G7n4ZeO5/hn8cvDPxx/sX4feIvhD40tNJ8IeJLbwv46ay8Tal4N06LxXonizwb4p8La34d8XeJvAvxB+H+v+FtS0Xxd4n1DWbHRNSAPyv1b9lb4v3Xxq8HtH+y3q+teNvDf/BQX9p39qrVP2rrm++FaaXd/Bf43/s5ftJ+GPAHhvTPFWteJ9P8Aiu+u6SPFfwp+EK+FNX07w9b2Vn8LPD174p1bwx4Tj+Ew1/6P/wCCZH7PvxK+CWu+ItN+KPwM1LwPdaz+yl+wn4Yh8bmbwJqOmPqPwg/Z78PeAPGnwy1BoPFWq/EibV/C2v6XNpeoQ3Gmal4InsYp4NM8Y3t1JDay/eNl8f8A4eQ/FT4mfD6+1pNGu/hX8GvhF8efEHxB1qDw5Y+AJvhz8c9d+M3hDwHf23iWPxJFbs9rcfAHxzN4huZNC8NR/YF+Hp+134P2eeq/7R/wks/jB8H/AIZ2/j7S9Y8U/HX4ffFD4l/DSPw7qNh4g0Dxx4a+H48B6h4r1rR7/Tdb1GLxDeQQeK/DF54Ct7GxneHwbB4rmkZYITNGAfmbb6Tqs37IHhj4IzXUj/GFv+Csemwm3u2M/iZdU8P/APBUO7/bV8ReLrNiv70Xn7KOjeIP2j9OnLFrj4RnStcK48TV+4ujQQQ3csNtHZeXDcS+XHaxBbaxsY4i2n21qy/ILjydQ+23AVQu3VZQCQVA8K8Gt8FPGR1P4lfDmz+GXi68tdd1DU9T8efD6fR/FNvceO9M8FW/gNk/4S/wfpN3c6h4k0jwRZad4D1DW9QtrjWvD3hjT9J8NiCR5lQ8NY/tV/D+78TeGJIPDvjJfC3ij49eMv2arb4kS2PhqbwHafErwLo3imDV7S/lXxq2s+GfDlt8T/Dni/4EnxPYeGdRh1740+HbzQDKnhjVPC3irxMAfbNFc7p8sU12jIS2WvUjWSBZXtG0+X7Bf2KXYJKxreFZEPR1Up0IA6KgAooooAKKKKAGv90/h/MV+f37NH/J6v8AwUc/7HP9m3/1nzw1X6Av90/h/MV+f37NH/J6v/BRz/sc/wBm3/1nzw1QB+gdFFFABRRRQAUUUUAFFFFABRRRQAUUUUAFFFFABRRRQAUUUUAFFFFABRRRQAUUUUAFFFFABRRRQAUUUUAFFFFABRRRQAUUUUAFFFFABRRRQAUUUUAFFFFABRRRQAV8/wD7WX/JrH7S/wD2b/8AGX/1XXiOvoCvL/jd4Ju/iX8HPip8OLHUodGvPiF8PfGHga21ieCO7h0iXxdoF/4fTVJbKZki1BNPOo/azpzywLqAh+xG4t/P86MA479k/wD5Nd/Zu/7IB8Gf/VdeHq+ga/mJ/ZR/au/4LD65+z98CtW+Dv7BXw28b/DGf4O/DIfDnxgfHHwm8LReIvAWm+DbLSfCuq3vhzVf2x01DQDr2iJp2sR6GmlaL5EyLNJD+7aGvpb/AIad/wCC63/SOD4T/wDh1fg5/wDRiUAfvBRX4P8A/DTv/Bdb/pHB8J//AA6vwc/+jEo/4ad/4Lrf9I4PhP8A+HV+Dn/0YlAH7wUV+D//AA07/wAF1v8ApHB8J/8Aw6vwc/8AoxKP+Gnf+C63/SOD4T/+HV+Dn/0YlAH7palI0NlNIgDMphGMyByrTxq/kCGOSSS62lvskKpie58qFmRZGdf57P20P2Kvjz8fP2xNZ8U+Abf4JWHgg2v7LkVj4l8VfskeFPiDqk8zfGDUvGvx0v8AxV8Qr74w+D9Y8a+DvBvhr9nP4TaTr3huC3hfUfA/xQ074JeYiw7h6D/w07/wXW/6RwfCf/w6vwc/+jEo/wCGnf8Agut/0jg+E/8A4dX4Of8A0YlAHrP7V/gX4z+Gf2gP+Cf3xj8H/BXxn8cfCn7OPiv42zfFzQPgsnws8Mz2J8b/ALO3i/4P+HvEfhLwJ8WPiT4EJsLrxBrNxBoXhzRPip4x1bw34Ta98KaLZXur3NhaXPxL8WP2df2tviNrkP7Ums/DX43fCuz8e/tj6z8a9V+DHwwi/Za+Jfxm+GXhjw/+x94J/Zp+D3xT8XeC/in4e8WfCTx/44vNX+GGv3/i/wAM+EdD+JfxC+GmgfGjwPpPgzSNX8ReAfiPbyfQP/DTv/Bdb/pHB8J//Dq/Bz/6MSj/AIad/wCC63/SOD4T/wDh1fg5/wDRiUAfE8/7B/7T9t4L8Kvo3g34vaL4V8KeEP2C9V8ReAdF139l34gfFDV/Bvwy/aO/4KY/FvWvhF4d8KeMvDCfsoaz4o+DFv8AHr9n74laV8LrTwXafCrwLpfgPwh4E+AGt+NpPAfgvxPqO74i/Ym/aD1z4UeDbfwF8Jvibqnj3xf8D/8Agqv4L8P6t8U9X/Zx0bxr8Mda/aIfwBq/w40/xX4V+E3hn4feAfht4H+Mtx4H8UQ+KNF+GHhvxSnwh1f4jJonji0uviD4h8fK313/AMNO/wDBdb/pHB8J/wDw6vwc/wDoxKP+Gnf+C63/AEjg+E//AIdX4Of/AEYlAHpn/BO74I+O/h749+P/AIx8WeF/2hfD2n+LfDfwM8BWr/H/AET9kT4b69reofB24+MXh690pPhL+x14H8EfDpdF8L2fixfA/wDwuS4bxWvxV8C+H/havha/k8HfCfSvE/irxPw/pWo3P7C/wX+CYuJR8X7X/gpD8OPA9zb3SbPEt34y+A3/AAUkuPjv8aPHdtH/AMsjP8HvhX8RP2hbCA8eJPhWbP4lDP8AwlxrXu/2nf8Agun5DCT/AIJv/CgoXhDKvxW+EkbPmaMCMXFp+11fT2JkOEGpJayrpm7+0JNkVs8ieeaf8X/+Cx0PiOHxRp//AAS2+BreIr3xA/j1dcn8Y/s6W2qPr+s+BLXwC3iC9u5f2pLHxNH41tPBPh+28AWWvW11Ebv4YWtj4Sud9roMsTgH9AOjQQQ3csNtHZeXDcS+XHaxBbaxsY4i2n21qy/ILjydQ+23AVQu3VZQCQVA6uvwf/4ad/4Lrf8ASOD4T/8Ah1fg5/8ARiUf8NO/8F1v+kcHwn/8Or8HP/oxKAP3gor8H/8Ahp3/AILrf9I4PhP/AOHV+Dn/ANGJR/w07/wXW/6RwfCf/wAOr8HP/oxKAP3gor8H/wDhp3/gut/0jg+E/wD4dX4Of/RiUf8ADTv/AAXW/wCkcHwn/wDDq/Bz/wCjEoA/d5/un8P5ivz+/Zo/5PV/4KOf9jn+zb/6z54ar4Yvf2mv+C6j27q//BOX4VwDfCVni+KnwX3QyLPG0UrGb9rDWo44Y5Ajzytp05hgEkqyWrIt3B6Z/wAEwfHHxl8cfGz9ufX/ANpfwbpvwq+Pt78UvgrYeJ/hbol/4X17QNA8N2v7PXh2bwT4i0vxR4c+IvxPg1aT4g6bHqetTRLqWjCBNHZjFJtMDgH7PUUUUAFFFFABRRRQAUUUUAFFFFABRRRQAUUUUAFFFFABRRRQAUUUUAFFFFABRRRQAUUUUAFFFFABRRRQAUUUUAFFFFABRRRQAUUUUAFFFFABRRRQAUUUUAFFFFABRRRQB+ff/BKn/lGv+wD/ANmf/Ar/ANVz4Tr9BK/Pv/glT/yjX/YB/wCzP/gV/wCq58J1+glABRRRQAV83/td/Ge6/Z7/AGcvih8X7DwXD8RtU8I6XpP9i+BLnxE/hGy8W6/r/iXRfC+g6DqXiWPRvEb6LpOo6zrVjb6tfr4b8SNDpr3RHh3Xif7JvPpCvjv9v34La5+0T+yF8aPgt4d0nTtd1Hx/pXhvSpNG1a+j03TtT0i28b+GNV8RWd3fvBcSWsU/h/T9TQy2KxaqrFRo93Y6qbO9twD588Afti+OfDfxv8S/Bj9qj4Y/Dn9m6PTf2fvF37VC/ErTPj1pfxH+EsHwZ+FXiyx8HfFTWfiL4p8aeA/gzrnw38Q+BoPFHg3VJtR8c+E7DSfEfgnUtU16+8Rwav8ACTxh4WvvZ4P2zP2W7LwRL8TT+0L8N5PAVj4tuPhnda1beMND1UN8TY4LTxLefCqFNI8T6lrd78UdN8HxweINX0CezuNR1Pwxqlh480tV8E6fqM0f5WfFT/glXN8MbX9pr4Z/sWfDjwj4H+E37S3wm+EHiHU7Jbyw8E+MfA3x3/Zs+JHhnx94a8AaV8R9X8NfEL4lH4O/Hf4eW994SvtDtdI+KWk/Cj4kadqfjTQPCN3J8U/izDU11+xN8fb/AML+K/iL4g+HfxlX4gan8f8ARfHOg6rZ/teaZJ+2B8PfCGgfs9+KfhBF8RfA/wAVNaGhfBK6+IV7r/jHxXo/iv4R+PT4o+C2t/s9Wtnq/iC71zxvHpngS2AP1E0/9tP9lM+J/CPgS1/aZ+BF94n+ImjfDK8+HWjaT4+8Ia+PEtr8UtCt9T+Fur6Y3hqaODXNL+JWnapYJ8Jr63aPwx8X7vUtF8M/DFn1uG8Uuh/bK/Zr/wCFmeM/hQPjx8NB4t+H/hzxn4u+I+jat8RfCjyeC/D/AIRSW78S6jrd7qWoIum6b8MNF1rT9R+MMN4o1vwDZeJ/BM3iVk8OyagT+LHw6+B37Xvj/Vf2i/2WfFngTwDceMvH/hX9gHwb8cPjZpGv+FNL0r4TW/gXT08V6reWPgbwr8Nfh8vjTTvCHhyxtdC8BT/DvRfAvh6X4m/aL+38PfCz4eQ614muPV/jp+wd+1V8UfhH4n/Ztg8D+FE0X4ceOv8AgpD8afBXxx/4W3oMf/C45/2z/h1+2r4R8CfBi50GTw1pfiPwx4v1XVv2r9N1H47az4tkt/BiDwta6/4d8SfFPxD4msJvhkAfqbpn7cf7KOu+CfHvxI8NftG/C3xD8Pfhw2jWPjnWdA8ZeHNfgsLnxZc6bpPgjTLw2V5Jqs2q/EXV9V0vS/hdHoSPpPj6/wBW0vw14YJ1/WdKrxH4rf8ABRD4H+AdIn+JsPjL4XeLfhTPN+zLYal4/wDDnxl8JXWh+GNC/aF/aY8UfArxV468YXVwDaeF/h78H9d8J6ve674iu2HhfWtc8O/Eb4deKlTxB4IQHxj43/sfePPEfiv4heJ/D/w68N+JtKPwR/4J1+GPCunfD/4k+IfhN8VPD/i/9m74vfti+KfGOu/A3X/D01tpng7xL4F8H/F/wpP8Gdf1uU+EfiFo9n4h+D3jGG58KvrEMnzkn7Cf7bWp6BceLPGmjeHviT41in/Y78QaP4e8U/ELwDoni7XtL+AX/BTP4/8A7UWt+GPijr3hH4U6B8LdV+LfhT4O+P8AwU3jf4jeH/Blv4S+L/xMvvEmieIP+E6soL74reNgD9F/in+3H8NvB3wg1f4v+CNU8I/GP4e2vwM+P/xm0+bw78WvD2h+KdT1P4CeJfBVh4s8M6DoNzp2qX18+k6j4nuo/FWr3VhNqHwN8Q6LLp3ip4bzxH4bmh5XxX/wUN+DHwv8Xaz8J73XfhlafFKH4Q/tvfF3Q9A1D41+DbLwl/Yf7Fni6y8MyeHNf8YahqOn6d4DbxLo97e+OdW8P6p4fn034Mab4L+MlnqgisvClzcx/CXxE/YO/aa+Nmj/AB58bS+BfAPgvxD8c/hh/wAFG7+H4W654y0XxDd+A9V/aQ8N/sc+E/hR4Qn8S6RoA8F+NNS8c6P+z5qXi/4z6r4P1fVfDfhHxp4m1bTIPiR8QrlItX1rrvix+wn+0xf+Fvi7oHhTw14d1pPi58Hf+C73wjuZLLxPpHh3VNOv/wDgoR8Y/APxW/Z38R3F5DLbvquo6lF8LrPwr4l1FpoYfCt1420DWrx/sfhydaAP1sh/aM+B0nxi1r4Bv8b/AIdQ/GnR4dTab4U2Xj7wjqXjjR2fw1b+LbTR7jwkzLPpniCTwGtv8R9T8PauDLYeFZrHxhaD/hBr7U2Gt8B/2jfgJ+0Nd6lefA/4ufD/AOKtp4XtLCPWpvh/4s0vxVDZ/wBsjUBomtzPaZu7nwv4jj0jW18H+OrEnwj43fStcj093u9Eir8c2/YQ+O0v7Q3i3TL3TNS8Z/CvxL+1F8Vv2sNH8ceLPjjpWofAW9Xx94b+K2t6J4Sk/Z7g8G2/xLu/iFoni34kaP8ADDXbpPHy+FfEvwL0q38S+HPiLZ6va2HwTsPrf/gm/wDAb4+/CHxT8Sv+FoWfivwt8N7Twf8AB3wR8LPhz8Q/i/4a/aB8X+Cr/wAAyfGe28b2Xhr4sQ/Drw3491L4DNb+KvBmn/Bbw58TfiF8UPGfhT+xfHNxfRfDXWPGXjHw9r4B+uNFFFABRRRQA1/un8P5ivz+/Zo/5PV/4KOf9jn+zb/6z54ar9AX+6fw/mK/P79mj/k9X/go5/2Of7Nv/rPnhqgD9A6KKKACiiigAooooAKKKKACiiigAooooAKKKKACiiigAooooAKKKKACiiigAooooAKKKKACiiigAooooAKKKKACiiigAooooAKKKKACiiigAooooAKKKKACiiigAooooA/Pv/glT/yjX/YB/wCzP/gV/wCq58J1+glfnp/wSy8z/h2j+wJ5W7ef2QPgQoK/eUN8PPCKsw/3FJb6CvqT4yeAPEvxN8Cav4M8LfFz4nfBDVbuTR3h+Jnwr/4QE+OdOSx1rTNTuotE/wCFofDv4seBturWllPoWqHWvAGun+xtU1AaW+j6wbDX9LAPWtRLizl8oziVjCkZtjbrOJJJo0Qobr9xwzAt5nBQMF+bbX5SeD/+Ck3wt8VfCf8Ab0+JI8BeMdLv/wBhX4sfH74T+IPAum3Ol3PjH4o33wl1e/s/B2o/DTTbM/aNQu/i54t0rxL4E+E2nIMaj440jxTYSZjnIH1B8OvgX468A+LJPGXin9qP9oX4u6Efhvongu9+HHxW/wCFA/8ACDLqel6Z4as9R+JOrHwF8APhj4y/4SbxBdaFruo+KRP4vf4W/wDFWeMD4X+HGgWo8C6Z4I/JXSf2Af2iNH+KZ1mPwlpEvwx+MX7Tf7Uvjn9paCTxPb2usv4V+F37bXxx/bD/AOCeXiTw5b6BqGleIY727+IPxQ8QX/xBl8OahB4kt9O16yn8PiXWYbGCUA/Rv4bft1/s8ePPAP7N2va38S/h58LfiT+1N8EfhH8Y/hp8DfH/AMTvBWh/EzWtH+L2g6T4g8OaV4M8OXl7Zat468Sajq97ceCNM06KWL/hYWteHNZtD5kOkTRn2zw3+0/+zp4v8ca78KPCnx2+DGvfFLwxFra+IvhzoXxW8Gal4u0I+E9d13Q9di1jwzpviltTsn8K6x4W8R+GPGEMeV8I63ot9Y3yC0iuFH4F6Z+xb+3ynwx+BvwRvfh/4q0nRfAPw8/4Jd6ZcWHwk8Y/sheFfhb4n1P9lux/Z41z4zW/7Q3inVtL1H9p/wAVfE/wJ4y+Fvi/wf8ACmD4Z+JNM+DcWhL8PJbjVLHUU8U3kP0r8Qv2Nfj5e/CPRYfAfwk+FmrfEyx/an/4K9/F+zsfHMvhvxL4I17wt+1r4a/b9034B6h40triHU7PxvpnxIg+Lv7PugeL/h5qd54o03T/AAJHZ2Gq6Hp+neDLrR/BoB+m+lftr/skeKvh74g+KPhH9qz4AeJfhh4BbwzbfEL4iaF8ZPBGs+GPCD+JtVk0LwrH4y8W6R4rSw8FX3ivXd2k6XD4hmjjvdahstLkDvcqp3Ne/az/AGUdD8AeH/iL4k/ae/Z90X4aePNVfRPBXxB1T4wfCew8H+MfEMAM1/4Z0DxJd+KdR8OeKPFItUnN3a6Faz3otxLzGw81Pwf8WfDb4/fCL4tQ/tYfHvRPiBHoGhePP2GYfA/hT9pv4u/sl6T4p+KXiL4J2H7emjeJPhp/b/watPC/7NPwth0LW/2jvDnxC+C+jeNPFXhnwFqfxL8AaBqOp+Nfht8TviJofhzwTm+APhJ+0R8dPDHw9/al+D3hL4h6Volx8Qf+CqngOXwh+yz8TP2bJPiO1v8AHL9tLSvEPhvxRH47/af0bxx8FNb+HnjA/DO/h8bS+D7y01y107T/AAzceEtH+MeiRD4b2oB/R/4/+LHwz+F3gO6+KHxC+IPgXwH4KtT4f2+NfGniSw8NeBW1HxPcWWj+DNvi/Wrmx0dbfX77VtN0ezmsLlI7m71OC3QSCYRv842v7ev7JOt/F7wt8HdI+OPwwvtb8c/CSx+M/gHxRH8RfBY8J+KfB3jXxrpngbwenhnWLbxV9r8VXvifxPcXQs4LD/TftGmRS2GboQMfmD4o/sy+OrD9jD9mX4MaP4M8YeKPiL+zZY/AGSC7+B/xmsfDXxZ8G+Jvhr8N7f4Z33xR+BXjn4p6DovgHxrqnhiKO70+bwv8eLTwD4e+Lng2Tx/ql/ZaB8QNH03Qrn5F8Vfsm/tmv4A8E6jqnw0tPGHirS/hbJql7ouieIPgX8K7h7r4A/8ABRzwf+2J8PPhz8TbnwNL8K/hHb/G/wCNfwb8M3/gbxN8R/g94W1f4N6R+0LN42+JHid/Afwq8SeHtQ1EA/aPxT+0R8Bvhzp3iXVvix8Zvhl8MtG8LePdM+FniHVfHvxR8GaFD4W+Iut6F4b8XeHvBniLWtb8TjR/DvjHWvCPiDw58R/DXg7Um/4TG+8CaxoHxJlBXWmrx/4Xft6/s1/ETwH8GfF+s/FDwF8Nta/aEsbtPg/8PfH3xX8AaZ43+Iq/8JXe+CLWfwBo+ueKDd+NLa810Wuk+EL/AEBHbxFrfiLS9IhRW1Fd/wAGeDPgz+1nY/FzxX+1zr37MfivUL9v21/FvxTtf2eU+J/wNufi3P8ACv4jf8E+f2av2btI+JNnreqfFWP4MWHxC8D+L/hb4n0fxj8Fda+K3hbw7Y6F4g+INh4J8d+LPC1p4Js/iV8a3P8AwTr/AGyYfh1L4RsfCnxC0OT4zfsieHP2dfEngL4RfGv4BeE/hl8Lb/R/ip+0R4u1fQP2jde+K3w58T/EyT4V3fhT48eHvEHhzxb+yn4Qv/i14OntNW02z8FfDzxSngz4sWQB+/kX7VX7NUPirXfh5fftGfAe28faLpPifVPF3gG0+L/gubxX4Y0f4fLqWi+OdU1Xw7pniuPxDoFl4Hn8K+JNP8d+OvFEtvpnga68MXVvcXdpFbS3EHEfD/8AbF+GHx8/ZY+B37WvwaudH1b4YfG9fgpf6adU8ceBNPl0G8+LvxC8G/DdvDmsa9YeNdQ+H978V/hj4q1vUNA134YaJ4n8S+Orv4keErT4O+B7W18fa14elg+YPhz+yn8WfBfjD4HeIdS8K+GNIfwn/wAFSP27/wBqXxpqNimk6Nqtr8G/j94N/bz8M/D7xHq19o1/qB8S+J76/wDiz8I7DV7KC9a3j8N3OneJNf0uxm+H3ioxX/hr+zr8cpf+Caf7Ef7PPiHwMPDfxo+A2sf8E4vDfjzw7qPiLwhe/Y9M/ZE/an/Z01jx/wCKNK8UaBdWegX/AIZ1XwB8JfE/jzTdD0u5j8Q6tZaj4b0GyH9q3tvDKAfbnwy/aZ/Z/wDi748174c/CT46/BT4jfELwppDa34n8JeAPHPgvxp4m0PQ7rV7v+0tXubXwh4na80/SZdVu7C1uzqRF9o+pTeFW8Sr/aPizTGPRa1+018APD/xX0T4EeIfjZ8IdG+NniFYm8NfBTW/H/g+H4qais3mNb6laeGZdfvNfvVmEbSMttYyyJZLLcE7Yndfz2/Zb/ZY+K3wn8XfsdeKPEHgbRvCdl8FPgj+3ponxJ3ap4SiXw54l+Pfxq/Z7+IXhO0e70LXb251ZPEmjeBfFXiBte0m0uNF8OxRjSPFeNbkVk8Z+NP7NH7ZPxS/aXvNVi8LeL5fhza/t8fsi/H3RR4J8Q/s1/DT4JeIvhL8Lk/Z0/4Tbxn8RbDT/Ctp+1V8Qv2kPCl94H8R+G9W03xf4zvPh7afD/wt8PbDwt441LWvB1j8M/EQB+vHxL+P/wACfhHqfhOL4vfGH4YfCy+8X3V9p/giw+JHj3wh4E1Hxhq1rL/Zl54Z0JfG93Y6lfXL30q/ZIdFnie7n8qEboZXjl8P0r9u/wDZxs/BWueNPit8V/h98CbHT/jR+0F8HNKm+L3jzR/AEPiPUf2d/izrfw38Vat4Wj1fxXDdeKtMk1HRtI1u4j0aRY5tG1qH7T/ocku7wX9qL4XfGzT/AI1+MfiB8P8A9n3wb+1ho3xo/ZGvf2WbnwP4w8VeAtM8CfDjxVH4l8VeJtR1D4r+DPiV4m0ayuf2ePippvxEs7L4zR/DrVPib8UNRsvAfw4gX4QfERZT4r8L/EvxJ/ZK/bettN+K3gLwP4UvodP+Js//AAUbtdMvPhJqH7NXhG5u739pn9qG/wDiL4E8P/Hb4gfHTwh8RfH3hf8AZ88S+ETZ6t4w0n9lu9vPiraQw6k3jr4faxe/8Kr1fwuAftonx9+Bk/xM034JL8Yfhf8A8Lsn021ubP4Lr8RfAL/Fe70u38PXmv2Gq2Hgaz8X3HiU3Wt+FYL/AMV6XqVvbGK38E2moarftFZWt1It/wCCX7RnwH/aAuNQu/gZ8a/g58ZLLw2LCx8Sz/B34j+FPiHb+HtQ1GDV3sIPEieFvEmsHw9Fqy6Nqj+G4NUt4ZMaTrkAAlcbfxc8Nfsi/tGj4heFtM0P4V+MNJ8LeIH+G2t/GLQPHvxX+DnxB/Zr8U6TF+xjbfA/xXqGr2V9p3jb9q/4F/tXy6josfwjf4gfs16he/CnxT8OrTS/G+nfE3xBrPizxF8P7f6e/wCCd3wl/aC+Ees/Eqz8c+GfiX4a+GMPwm+CHhL4Y6X8ePEv7PXxT+LWmax4Hu/itb694J8I/Gn4N39zrXxQ/Zn+H/hW+8HaT8ML79o3xd4l+OD63rHjPVfEWreB9P8AFF3ZQAH6n/Fz4g+BfhT8NfGXxG+Jnjbw78N/AXg/RZ9a8UePPFesaXoOg+E9Lt3jEut3uq6z/wAS23kspHjksY7jm81H7JZQf6RcRV8QfsqIi/trf8FEPLh+yH/hI/2VC2nW0cFrp1nG/wCznZlmtJNOIs9UjkuQ8avIB5YjEiBWjUV/NL/wcY/8EmP+Crv7Xeoal8aPg38bdQ/aX+AvheT+1NB/YrspH+H+teBr+10tpL/XPAehaHf6Do37RGrG0S4vF13xRNb/ABitI7eTwv4L8NeNtPninuP2E/Zw/Zy/advP2t/25dItf+CgXx10e/0DxH8Bre78Sr8Hv2SpNb8TXHif4M6d4peTxDYXv7Mcfha21jTdP/si0k0nwVpGkaNFDKdXbVtS1q58RQ3AB+/dFfn1/wAMsftaf9JMv2hf/DD/ALFf/wBDPR/wyx+1p/0ky/aF/wDDD/sV/wD0M9AH6C0V+fX/AAyx+1p/0ky/aF/8MP8AsV//AEM9Nf8AZX/ay2nd/wAFMv2iMcf6v4E/sXK4ORggp+zMW4OCQOq5B4JoA++tRjaW0dUMwcS20q+Q7RyFobqGYAMqSHYxj2yrsIeIujFVYuv5HePP+CrXwh+H3x28bfs/6t8DP2o7q5+Gfxf+C3we+IvxW0z4bfD1vg74Q8VfG67+Hdx4D1nUtQf4i2viy/0WCPx54T/ti/0rw1d3+mWDXGpQRwvaC5h+o/AHwK/aS8EeJNP8R+Kv23viz8a9E003v2nwF42+Fn7NXhjRdXkvdPu7CznuNW+HvwK8IeLBdaFfXVt4h0rTtO8TaLDrer6TY6Jq19Fo2oahn8jfib/wTp/a61r/AIKGfFr9uP4Y6B+zZpfiXxB4x8Cax8K/Hmv/ALQvxmt9f+HPgrTPgV4U+Cvjq91r4IW/7Nvjb4O/FDxxrelf2z4m0M2uoST+G9a1qwsIPiBNd29urgH7K6Z+0/8As2XfiDSfB2i/tC/C/XfFd34k8V+ENF8LW/xd+HOq+Jtd8T/DjSNP17x38PNP00+LYtXv/F3gbTdY8PyeKdPZz4s0y81HQrzxF/xI4r4N5N8EP+Cgn7Ivx60D4ma98L/2ivg9q1p8H9X+Ndj8SxdfFL4XWi+DvD3wm8fal4C8VfEvVLHQ/GsttoXwbv8AUNObxboHxH10ATeCJ7fWy3neKUNfmp8B/wDgnH+2H4C/4KG6j+2/4k0b9i/StH+I/wAR/jpe+K/hd4X8YfETXNM+Efgbx74M+CPh3RvjZ+zjDd/ATwh4Usv2tviPr/gXxfc/tJeNNb03TtM+Lvhy88MreJpUOvt4f+H3rfwv/ZO/au+Aeq/H74efDP4B/sL6x8OfiD47/a18a+DvF+vePPGXgvxT4z+H/wAeviD4x+IHgn4P3mh+AvgMth8NvBfwyl8a6ZbeMdZnv/i1oOqWej6LZ+G9P0rxJd6bq2ngH6P2v7V/7NmpeEvHHjfTf2jfgM/gf4WHRtT+I/jOD40fDqXwp8PLDxXb2sXhnVvH2v6N470rwv4N0fxTb38Op+GrHxHqMEviDTGj1myE+p/ZYJfYfAnjzwV8U/C3h7x18NPG3hb4j+BPE9tFc+HfGXgPXdL8beEvENssi7NY0TxfpGo69o+q6JJLhYR/ahNtKBNbu9zFbo34MeH/APgm7+0pon/BNr4ffsveDPhF+yF8Jfih4Qvv2f8Awn8TIfhJ4q17wtZftUfBX4S6D4d1jWLrWPi5qv7L+ifEP4FfFrxt8T7XUNf0bxFrHwp+JEnhBT4n03R4ItR8VWmqaf8Acf8AwTE/Zk+PX7JX7NmofB/463fgGfVrP4v/ABn8d+HfEnw2+JXjj4v6lqXh74peNNW+IS6j4u8X/FT4Z+AfFOpatomu3t7afb5Ibuz8W6Lofh/UbefTyyeE70A+1fi3+0J8CPgO/huf42/Hb4S/Bm08T6xLo/htPjF8TvBnw7t/EOtQwPPPD4Wu/H97p974nnjiR3ex0e6QtCkiRiRWMbRar+0J8CdG8ceFvhtrfxq+E+i/EP4gaYfEngPwHq3xL8IW/jzxhon2KfUJPFfhbwpeeK01e48LDTLe6v4L3QAsXkW73Mx+yx3Cn87f2wv2Qfi58QPj346+Jngj4C/slftJ+Afi5+yjpH7Lvi7wl+0t41+I3w+1H4RxWHiz4veK9V8U/D/xZ4L+DPxU1DxH4M8a2Pxalh+JHgzQZvhV4igl+Dnw0n8NeJdP1eKwubb528af8E2P2hPEHiz4g6RZeG/2UV8M/F/xF+y/8U7z9oYJ4ttv2iP2atX+Afgz4JeCNd+C3wL0jU9B8Sw+JLDR/EfwXuvEf7MXiSX4++Brz4K6z488bJ8RfCvxDub+5vPiGAfqp4d/bt/Yu8QXU9joH7W37NGvXVtpPiTxBLbaZ+0F8Lb7UbDw/wCFNCsdb8Z65qEd340l1XRtE8L6Fqlt4117U9gj0nwbJp+t3JFtJJntfh/+0Z8Bfi9aeJb/AOD3xt+EXxE0z4aXR1Xx7dfDb4peFfF0Pg2yuNNbxDp7+N/+EE8TnS/D974h0qG417SNN8QMtprPh2K4165BhjmA/lr+Iv8AwSQ/aH+CHwSvvi9460P9jCzsfg14HvPiZ8T9T0zxl8Sp4tK8M+E/iH/wUh+IPxC0zwbff8Mw6Vc6vo3ij4JftfeCNP8AFGva03gFNU8T/s+Wuj+P9IayvNJ+KWh9h+xv+wF8Vf2vf+Cfnwx8T6Z4o/ZF+G3haT9gTT/2Xfg9N8HPhz400jWPi9fS+MPhX4g8UW/7ZGta7Z2GpzWNr44+BXiD4beMfhn8KB420nxvr/xd+LfxP0zxMLzxhCigH9JOm/tc/sp6l8O4vibpP7SH7PVx8JI/Feo+AdO+KGm/HP4ZN8PLnxnaJLqWo+EYfGugeKD4ZTxbph0yWbWvCSsJ9NtILi5vgbeK4zd1v9q/9mXwn8L/AA/8e/FH7R/wO0b4I+LrbT5PCfxR1v4o+D9H+HWv2t6l9PZNpPjh/FX/AAgPiKWW00zV2jsdIc3l5PbxWKD7RPHu/Fz4g/8ABNj9o34vazceMNf+CX7D/wAMbjVv2jP2H/iLr/7OfhbxDrdx8Irn4Y/sXeLvjH4q1/xZf+KZv2cINL8Q/F/43Xfxj/4Qm/0lvhtqnhjwN8P/AA34NsvGHj7W9bhW2uPNPjV/wSa/a1+I3/CJ3mkx/B3RdC8C/Gz/AIKAz6b8H/hj8dtX8FaTP8HP20/iR4G+JPgxI/HXj79jv40aP8PvFPhZx490z4lfDL4YfDjTdK8U+D18J3ug/Eq31q4sPCV+Afvb45/af/Zt+Ffiaw8EfEv9on4M+AvGHikaRqWg6H46+Kng3Rdf8Qw+KrvWbfwtqeieGde8UpeX/h3XdT0vWPDOl2ehATa7qlm+mW5P2sGvPbz9uL9k/Qv2mNf/AGS/EPxv+G/hf45+GfB/wm1lfBniD4jeCbHVtSuPi1qnj3T/AA94Z0b7Rr954l1T4iWF34bs9W8S6BrVnJDDpnjr4U+KbNml8TRSr+Mmu/8ABIz9oeTwb4v8FWnhX9m3xnrE3/BIrRv+Cf8A8NfFfxJ+K/xU8S+LfA3xP07xn481ew8R2XiLSf2bp7zwj8PPhzoHxJvtG8C6/oF8PGsWreD/AAFLe/D/AMM6Z9q1fTftz4ufsxftNT/tb2/7VHw1+Bn7IPibxP8AEX4Dfs//AAy8cTfFvxn4ye8+CXxX+GPxW+JniqX4n/DRPD/7NnjDUviZcxaT430qDw54p8QaL8F/FyWPw18D3Gu67oOkw3ll4KAP2G0mVZ7+1kX7U8hS8RnnW6t5LdLFjZXdrftZu2l3+pf2gysXl58pJJYgWSNz2NcJ4fMwnsomWe5gVUmt5WktTbafE2kwxx24FrHcXX2zyjFOBq1/qUottVc/2/PIUsZe7oAKKKKACiiigAooooAKKKKACiiigAooooAKKKKACiiigAooooAKKKKACiiigAooooAKKKKACiiigD8+/wDglT/yjX/YB/7M/wDgV/6rnwnX6CV+ff8AwSp/5Rr/ALAP/Zn/AMCv/Vc+E6/QSgAooooAKKKKAOY8Z6B4c8VeFta8O+L9E0rxJ4Z1izNlreh63Z6ZqGk6lYSyR+db39prP/EtmtyAHb7T9woJIf8ASEiqtoOl2diLC10+zXS9J0+OOHStJhW1sodLttPsP7L07S9PstLUWH/CPQafJK9lGGKRSiFlG4RhOwooAKKKKACiiigAooooAKKKKACiiigAooooAa/3T+H8xX5/fs0f8nq/8FHP+xz/AGbf/WfPDVfoC/3T+H8xX5/fs0f8nq/8FHP+xz/Zt/8AWfPDVAH6B0UUUAFZ2ruY9OunBUFYwQ0oc26sHTDXoQhv7PU4bUcH/jxFxnjNaNZusBDpt2HVHQxgMsuPszKXQFb3OR/Z5HGo5BH2H7RwaAPmTwj8WtJ+KnxT/aO8AaVFqL+H/gJq3gb4c+JNcTU57a+ufilqvgjR/ijqnhfQNEZC2np4V8F/EP4X6xpPjeB1uvFPi/xVqfh+zktrr4Wwzr8PQ/tfftgaV4/+NPw8+In7Kf7NeiWX7PfwU8NfG/4j6l8Pv2z/AIneMZ9Q8LePtH+M17pGneE/D91+xB4BtPFHiPSrr4e63beIrPxpJ4G0XT/7b8JeLEu9VbW0n8HfSf7J+j3ngX4mftr/AA214uNY/wCGltT+NHhuSRh9p8S/DX43/DvwRqXh7xPDuwp0pviDoHxK+HNoQMt4k+F+tEHAUVh+LfgD46134q/tx+OrXUPD8el/tIfstfBP4Q/D+xaWa31rSfE/gDTP2iG8Qv4le2stUnSGe4+Mvg+O08vTNT3TvCradfDNpMAc98Nf2/vgj8Yvh94P8a/Djxp4B1PXtS1X9nKz8e+EL3x5rkH/AAjUv7RGu2HgnwHbeFPEkngWeP4p6l4qvNQ8S6D8MvEaeEz8Ofi/rPhW70yT4oeHINFl8QaV7t8J/wBqT9nv47eKfE3hX4QfE/RPF+peF9E0y+1Gz027vbYaj4SbUta8K2njnQrjxZBpelfEr4VXGsWl/o9r8TfAJ8d+EdY8UafqWir4q1CXRl0+T4C8X/sEfGy88T/CbVtLv/hZ/ZHw3+Dn/BLfwPqaxa3rltDc69+x1+1Vr3xn+MlpoZk8I6fbzeH73wjJ4ctvhfY3+qaHpWo63Jd6frHh/wAOadc3Ot2Ot+w3+zL+0t+zv44vB4nls/BPwH8P/CHSfCWm/B2y+NPxZ+OPgm9+Lljd2viGz+InwVPxM8C6h8WP2cvgZ4e0SbxJ4K0X4SeKPiP4y1LQ18TnQJPD+leHvAmhal8YQD6a1j9uf4G+AbW41z4p/E74feDZ28W/HDwvoul6frPjTxtpFj4f+DnxIHw/8a+PPHCt4F8FXvwy0T4Z6lb6H4d+NWueLNBm+HPwv8R+IvDPhTRfid4j1TxTpd3499N+Mf7U/wABP2dotKn+NPxR0v4fXPiO9m0rRNM1y41nUtb8Va7pek23inVtG8L6P4Q0bXZ9a8UaX4cnl8UavoPgzSLjVbvwrNbeL7qWzs9Nub+2/KL4n/sE/tYLonibUvg3B4O0P4t+JPHf7aviHwT8YfCXx68b/CvxR8JNS+O/7Q3ir42fCKL4w6Vo/hH4kfD348fBrw/pHiez0/43fBvxZ4X8SNoPxH8L32pfBqbXPDnxH8W6v4W/Tbx58HPF/if9oz9mT4sRXOgXnh/9n9PjVH4vnuruGTWHvvH/AIO0nwtoOoWlvNLGlu1rZ3F3rOsE3ujyeH/DV9Z6VC/ip5I10gAl1v8AbX/Zc0bVPhVo2vfHLwTJcfFbwz4G8a/D5rLV59Y0jVvCHxPu7nw98M/GHifxFoGl6p4d8E+EPiv4gmj8P/CnxhruqeHLP4o+KEbw74MS7ltde02eL4U/tV/DP4q6H+05q2lalceHNJ/ZU+Kvjz4bfEXV9ejnhis7X4bWNprnjrxXM1raXl3qmm6j/wAVJqsEVjHBeXR0VI7S+0q6ki1S1/KXw9/wTs/ap8DfATxb+ynpth8G9Y0P9pf9kj9nz9l/4rfEqfx18QNLn+CeqfCTwHq3ws8ceL9E0Zfh7NrPj9rXwXrsXxK+DOk6N4u+H+nj4san4pk1fSfDugx6h8VPD36CeB/gV8YI/h1+294D1iTwvoGlfG/4i/tE+MPhZcaJ4pv9YvdY0z4weCdO8P6bp3i7S7/wWv8AwgM1j4vk1a61fQfDV34yu28RQ2rX1zaWLXPh7xUAX7f/AIKZfsO60IrSx/af+G1rquqa1pPhzT4ptY1fQ4Jbvxk9pD4G8ReJLmTw1Fq2i/D7xRfXNl4Wt/i7Lu+G+m6/q2n+E4/Hk/xDvtDgm7+P9tr9lOy8QeMdG1D4saRpPiXwBoXxU8Q+MIGi1210aM/BjSDrPxj8O2XiW0ll+Hnjb4g/BLS4DpnxE+HOh6/4k8ffC680jUbfVrHT7PRrq5h+TPGX7DPxc1Twj8SvC2mX/wANtnjD9h7/AIJ5/AWzmt9U8VDRJfGX7KHxm+P/AIy+Jdoj2Phy0lh8GX+g/FPRbLwDPcXdhplvqE+oz6z4S0zSYb2/g+Q/i9/wTx/bX+OviPx2fFOt+HUntta/4KF6J4c8V6l8e/iFp/gs+Ev2l/gP+1J4D+A+veCv2e9K8AaH8LvhZqngq4+NHhzwp+0H471ax8efFX4g+L9E17xdZ+LvFHhHxbqF145AP1Y8Oftufslaz4E+K/xH0P8AaI8C614X+Ftz4bk8e69oN14l1saXZfE3XJ9H8FDw3ZRWt7rfi6z+LXiOOXTfg14k+Gmnat4X+Kniyy/sb4YaLreoWGqaXdeXfDz/AIKN/s8eKfCOteNvF3i6x8PeHbf4yfGH4N+ERanxn4+1PxxbfCF9F07xr48k+HPh3wVN8QvDGjeHNT8Q6Vo3xM0S70HRvCnwYvGudA8ceJ9Ev9cl0K48o+OP7F/x8vvirL8X/h9YfDzWZPh/8P8A/gnTd+AfAWseKNZ8Mad468c/sYfGH9sXxr408D6lr1z4F1G08F6X4l+H37Q3h7/hFfiHd28Vnc/ETQpra88IaLa3c+rWPi/ij9i/9tt5PEOoLYeFbDQ/i94//bU8X+K/h58Mv2n/AIn/AAZ1Pwp4i+Nfin4ReIfgrqniH46fD74Rx/HXU/D+haX4M+Iz/FX4VfCO4j0DxT4y1zwx4gig+Itolx4m8NgH3Xpv/BQn9m2y8dftAeGtR8f6f4c8N/BLQfgrrd147ilvfEnh/wAb/wDDQFr/AGp4Cf4Yy6B4dvIPiHqOvJrfgqLw0vhTWPGfin4neIvFNhoVvor6hYRwvra9/wAFCP2SfCemfCzX9d+OvhzTdJ+OUnifRPhbHDY+ItT17xV4j8B+KNJ8GePvD+g+D5fBN74zXXvAHi3xJo3hfxToHiSG28Q+GdY1JtK1XwpoWmC71ix/Oz4X/sD/ALVvw10X4N+I1034PeKdX+A+mf8ABP8A8f6d4UvfiJq9rL438dfs4fsweNf2bvjN4BhgfwDqPhXQtYtrH4heIfiN8Nfidb+ItR8D6n8StJ8Kw+J/C3giK58ZeL9D+nv2ev2TfjB8Pf2hLX9qL4qXPgLwsviKz/bt8d/E74f6B4v1HX/C/wAPNb/aZ8e/sYXfw60fTPEOvaH4Wi13QNE+GP7J/iPVvjR4hu9IsdJb4n+PNfTwLpmsWBg8R2oB9Q/F79rXwH8PdG0LX7K/0TxjotxF8HfHfje403xNe48Jfs7/ABb8caR8M9F+M2jaxpum6npuueEbbxLq/wDwlmrT65qXh2bXfh34U+Ieo26T3XhuLT5/sDRpJkksoLveJZYLu7CpL9rt4prqRZ5bU3BAAjgL3EXh8qMHRLaVM8YH81/wt+C0+vf8E+f2qNP8MeKJvFc37XXia8/YP/Yn8ZWN7eWdzY/sqeA/iV4p+C/7LWqWNtrZ+0eLG+HieM/it+03d+O9HBj+K/w1n174pSYt716/pc0qWGRgsHliKH7PGotAv2Q50uzlEliVz/xKpI5Yli7faYkI6nABv0UUUAFFFFABRRRQAUUUUAFFFFABRRRQAUUUUAFFFFABRRRQAUUUUAFFFFABRRRQAUUUUAFFFVryOSW3dIkjkkLRFBK6xqjJNG4mV2trxVlt9vnwbreQGeOMEx58xAD4E/4JU/8AKNf9gH/sz/4Ff+q58J1+glfmL8Pv+CaXh34beEfDHw68CftPftweA/h94I0TRPD/AIL8I+HP2iI7fQfB3h7RNGi0TRPB/he0/wCEVk/s3wl4W0eysdG0XTth8q3ijIGEL13X/DA7/wDR6X7f3/iRqf8AzF0AfoBRX5//APDA7/8AR6X7f3/iRqf/ADF0f8MDv/0el+39/wCJGp/8xdAH6AUV+f8A/wAMDv8A9Hpft/f+JGp/8xdH/DA7/wDR6X7f3/iRqf8AzF0AfoBRX5//APDA7/8AR6X7f3/iRqf/ADF0f8MDv/0el+39/wCJGp/8xdAH6AUV+f8A/wAMDv8A9Hpft/f+JGp/8xdH/DA7/wDR6X7f3/iRqf8AzF0AfoBRX5//APDA7/8AR6X7f3/iRqf/ADF0f8MDv/0el+39/wCJGp/8xdAH6AUV+f8A/wAMDv8A9Hpft/f+JGp/8xdH/DA7/wDR6X7f3/iRqf8AzF0AfoBRX5//APDA7/8AR6X7f3/iRqf/ADF0f8MDv/0el+39/wCJGp/8xdAH6AUV+f8A/wAMDv8A9Hpft/f+JGp/8xdH/DA7/wDR6X7f3/iRqf8AzF0AfoBRX5//APDA7/8AR6X7f3/iRqf/ADF0f8MDv/0el+39/wCJGp/8xdAH38/3T+H8xX5/fs0f8nq/8FHP+xz/AGbf/WfPDVMuP2B5/JkEP7Z/7fUkpG2ITftFRSQrIxASWWNvB8QkihYiWSMOGdEZUDsQjerfs2/sp+HP2cNR+I+t6T4z+KnxF8TfFvxHovinx74z+MfjxfHnirUNU8M+DtJ+H2jW9henQrA2WjR+HfDukNHZpcI0cq4cHa8ZAPrCiiigAooooAKKKKACiiigAooooAKKKKACiiigAooooAKKKKACiiigAooooAKKKKACiiigAooooAKKKKACiiigAooooAKKKKACiiigAooooAKKKKACiiigAooooAKKKKACiiigAooooAKKKKACiiigAooooAKKKKACiiigAooooAKKKKACiiigAooooAKKKKACiiigAooooAKKKKACiiigAooooAKKKKACiiigAooooAKKKKACiiigAooooAKKKKACiiigAooooAKKKKACiiigAooooAKKKKACiiigAooooAKKKKACiiigAooooAKKKKACiiigAooooAKKKKACiiigAooooAKKKKACiiigAooooAKKKKACiiigAooooAKKKKACiiigAooooAKKKKACiiigAooooAKKKKACiiigAooooAKKKKACiiigAooooAKKKKAP/9k=;" vertex="1" parent="WIyWlLk6GJQsqaUBKTNV-1">
          <mxGeometry x="1080" y="180" width="554" height="294" as="geometry" />
        </mxCell>
        <mxCell id="RAAy3S0Kc45pS8qdKvPB-53" value="ProxyServer" style="swimlane;fontStyle=0;align=center;verticalAlign=top;childLayout=stackLayout;horizontal=1;startSize=26;horizontalStack=0;resizeParent=1;resizeLast=0;collapsible=1;marginBottom=0;rounded=0;shadow=0;strokeWidth=1;" vertex="1" parent="WIyWlLk6GJQsqaUBKTNV-1">
          <mxGeometry x="650" y="100" width="400" height="840" as="geometry">
            <mxRectangle x="230" y="140" width="160" height="26" as="alternateBounds" />
          </mxGeometry>
        </mxCell>
        <mxCell id="RAAy3S0Kc45pS8qdKvPB-60" value="# thread : Thread" style="text;align=left;verticalAlign=top;spacingLeft=4;spacingRight=4;overflow=hidden;rotatable=0;points=[[0,0.5],[1,0.5]];portConstraint=eastwest;rounded=0;shadow=0;html=0;fontStyle=0" vertex="1" parent="RAAy3S0Kc45pS8qdKvPB-53">
          <mxGeometry y="26" width="400" height="26" as="geometry" />
        </mxCell>
        <mxCell id="RAAy3S0Kc45pS8qdKvPB-86" value="# PORT_TIME_OUT : int" style="text;align=left;verticalAlign=top;spacingLeft=4;spacingRight=4;overflow=hidden;rotatable=0;points=[[0,0.5],[1,0.5]];portConstraint=eastwest;rounded=0;shadow=0;html=0;fontStyle=4" vertex="1" parent="RAAy3S0Kc45pS8qdKvPB-53">
          <mxGeometry y="52" width="400" height="26" as="geometry" />
        </mxCell>
        <mxCell id="RAAy3S0Kc45pS8qdKvPB-87" value="# proxySocket : ServerSocket" style="text;align=left;verticalAlign=top;spacingLeft=4;spacingRight=4;overflow=hidden;rotatable=0;points=[[0,0.5],[1,0.5]];portConstraint=eastwest;rounded=0;shadow=0;html=0;fontStyle=0" vertex="1" parent="RAAy3S0Kc45pS8qdKvPB-53">
          <mxGeometry y="78" width="400" height="26" as="geometry" />
        </mxCell>
        <mxCell id="RAAy3S0Kc45pS8qdKvPB-88" value="# isProxyRunning : boolean" style="text;align=left;verticalAlign=top;spacingLeft=4;spacingRight=4;overflow=hidden;rotatable=0;points=[[0,0.5],[1,0.5]];portConstraint=eastwest;rounded=0;shadow=0;html=0;fontStyle=0" vertex="1" parent="RAAy3S0Kc45pS8qdKvPB-53">
          <mxGeometry y="104" width="400" height="26" as="geometry" />
        </mxCell>
        <mxCell id="RAAy3S0Kc45pS8qdKvPB-89" value="# proxyParam : ProxyParam" style="text;align=left;verticalAlign=top;spacingLeft=4;spacingRight=4;overflow=hidden;rotatable=0;points=[[0,0.5],[1,0.5]];portConstraint=eastwest;rounded=0;shadow=0;html=0;fontStyle=0" vertex="1" parent="RAAy3S0Kc45pS8qdKvPB-53">
          <mxGeometry y="130" width="400" height="26" as="geometry" />
        </mxCell>
        <mxCell id="RAAy3S0Kc45pS8qdKvPB-90" value="# connectionParam : ConnectionParam" style="text;align=left;verticalAlign=top;spacingLeft=4;spacingRight=4;overflow=hidden;rotatable=0;points=[[0,0.5],[1,0.5]];portConstraint=eastwest;rounded=0;shadow=0;html=0;fontStyle=0" vertex="1" parent="RAAy3S0Kc45pS8qdKvPB-53">
          <mxGeometry y="156" width="400" height="26" as="geometry" />
        </mxCell>
        <mxCell id="RAAy3S0Kc45pS8qdKvPB-91" value="# listenerList : Vector" style="text;align=left;verticalAlign=top;spacingLeft=4;spacingRight=4;overflow=hidden;rotatable=0;points=[[0,0.5],[1,0.5]];portConstraint=eastwest;rounded=0;shadow=0;html=0;fontStyle=0" vertex="1" parent="RAAy3S0Kc45pS8qdKvPB-53">
          <mxGeometry y="182" width="400" height="26" as="geometry" />
        </mxCell>
        <mxCell id="RAAy3S0Kc45pS8qdKvPB-92" value="# serialize : boolean" style="text;align=left;verticalAlign=top;spacingLeft=4;spacingRight=4;overflow=hidden;rotatable=0;points=[[0,0.5],[1,0.5]];portConstraint=eastwest;rounded=0;shadow=0;html=0;fontStyle=0" vertex="1" parent="RAAy3S0Kc45pS8qdKvPB-53">
          <mxGeometry y="208" width="400" height="26" as="geometry" />
        </mxCell>
        <mxCell id="RAAy3S0Kc45pS8qdKvPB-93" value="# enableCacheProcessing : boolean" style="text;align=left;verticalAlign=top;spacingLeft=4;spacingRight=4;overflow=hidden;rotatable=0;points=[[0,0.5],[1,0.5]];portConstraint=eastwest;rounded=0;shadow=0;html=0;fontStyle=0" vertex="1" parent="RAAy3S0Kc45pS8qdKvPB-53">
          <mxGeometry y="234" width="400" height="26" as="geometry" />
        </mxCell>
        <mxCell id="RAAy3S0Kc45pS8qdKvPB-190" value="# cacheProcessingList : Vector" style="text;align=left;verticalAlign=top;spacingLeft=4;spacingRight=4;overflow=hidden;rotatable=0;points=[[0,0.5],[1,0.5]];portConstraint=eastwest;rounded=0;shadow=0;html=0;fontStyle=0" vertex="1" parent="RAAy3S0Kc45pS8qdKvPB-53">
          <mxGeometry y="260" width="400" height="26" as="geometry" />
        </mxCell>
        <mxCell id="RAAy3S0Kc45pS8qdKvPB-77" value="" style="line;html=1;strokeWidth=1;align=left;verticalAlign=middle;spacingTop=-1;spacingLeft=3;spacingRight=3;rotatable=0;labelPosition=right;points=[];portConstraint=eastwest;" vertex="1" parent="RAAy3S0Kc45pS8qdKvPB-53">
          <mxGeometry y="286" width="400" height="8" as="geometry" />
        </mxCell>
        <mxCell id="RAAy3S0Kc45pS8qdKvPB-78" value="+ isEnableCacheProcessing() : boolean" style="text;align=left;verticalAlign=top;spacingLeft=4;spacingRight=4;overflow=hidden;rotatable=0;points=[[0,0.5],[1,0.5]];portConstraint=eastwest;rounded=0;shadow=0;html=0;fontStyle=0" vertex="1" parent="RAAy3S0Kc45pS8qdKvPB-53">
          <mxGeometry y="294" width="400" height="26" as="geometry" />
        </mxCell>
        <mxCell id="RAAy3S0Kc45pS8qdKvPB-79" value="+ setEnableCacheProcessing(enableCacheProcessing : boolean) : void" style="text;align=left;verticalAlign=top;spacingLeft=4;spacingRight=4;overflow=hidden;rotatable=0;points=[[0,0.5],[1,0.5]];portConstraint=eastwest;rounded=0;shadow=0;html=0;fontStyle=0" vertex="1" parent="RAAy3S0Kc45pS8qdKvPB-53">
          <mxGeometry y="320" width="400" height="26" as="geometry" />
        </mxCell>
        <mxCell id="RAAy3S0Kc45pS8qdKvPB-80" value="+ isSerialize() : boolean" style="text;align=left;verticalAlign=top;spacingLeft=4;spacingRight=4;overflow=hidden;rotatable=0;points=[[0,0.5],[1,0.5]];portConstraint=eastwest;rounded=0;shadow=0;html=0;fontStyle=0" vertex="1" parent="RAAy3S0Kc45pS8qdKvPB-53">
          <mxGeometry y="346" width="400" height="26" as="geometry" />
        </mxCell>
        <mxCell id="RAAy3S0Kc45pS8qdKvPB-81" value="+ ProxyServer() " style="text;align=left;verticalAlign=top;spacingLeft=4;spacingRight=4;overflow=hidden;rotatable=0;points=[[0,0.5],[1,0.5]];portConstraint=eastwest;rounded=0;shadow=0;html=0;fontStyle=0" vertex="1" parent="RAAy3S0Kc45pS8qdKvPB-53">
          <mxGeometry y="372" width="400" height="26" as="geometry" />
        </mxCell>
        <mxCell id="RAAy3S0Kc45pS8qdKvPB-82" value="+ setProxyParam(param : ProxyParam) : void" style="text;align=left;verticalAlign=top;spacingLeft=4;spacingRight=4;overflow=hidden;rotatable=0;points=[[0,0.5],[1,0.5]];portConstraint=eastwest;rounded=0;shadow=0;html=0;" vertex="1" parent="RAAy3S0Kc45pS8qdKvPB-53">
          <mxGeometry y="398" width="400" height="26" as="geometry" />
        </mxCell>
        <mxCell id="RAAy3S0Kc45pS8qdKvPB-83" value="+ getProxyParam() : ProxyParam " style="text;align=left;verticalAlign=top;spacingLeft=4;spacingRight=4;overflow=hidden;rotatable=0;points=[[0,0.5],[1,0.5]];portConstraint=eastwest;rounded=0;shadow=0;html=0;fontStyle=0" vertex="1" parent="RAAy3S0Kc45pS8qdKvPB-53">
          <mxGeometry y="424" width="400" height="26" as="geometry" />
        </mxCell>
        <mxCell id="RAAy3S0Kc45pS8qdKvPB-84" value="+ setConnectionParam(connection : ConnectionParam) : void " style="text;align=left;verticalAlign=top;spacingLeft=4;spacingRight=4;overflow=hidden;rotatable=0;points=[[0,0.5],[1,0.5]];portConstraint=eastwest;rounded=0;shadow=0;html=0;fontStyle=0" vertex="1" parent="RAAy3S0Kc45pS8qdKvPB-53">
          <mxGeometry y="450" width="400" height="26" as="geometry" />
        </mxCell>
        <mxCell id="RAAy3S0Kc45pS8qdKvPB-85" value="+ getConnectionParam() : ConnectionParam" style="text;align=left;verticalAlign=top;spacingLeft=4;spacingRight=4;overflow=hidden;rotatable=0;points=[[0,0.5],[1,0.5]];portConstraint=eastwest;rounded=0;shadow=0;html=0;fontStyle=0" vertex="1" parent="RAAy3S0Kc45pS8qdKvPB-53">
          <mxGeometry y="476" width="400" height="26" as="geometry" />
        </mxCell>
        <mxCell id="RAAy3S0Kc45pS8qdKvPB-224" value="+ startServer(ip : String, port : int, isDynamicPort : boolean) : int" style="text;align=left;verticalAlign=top;spacingLeft=4;spacingRight=4;overflow=hidden;rotatable=0;points=[[0,0.5],[1,0.5]];portConstraint=eastwest;rounded=0;shadow=0;html=0;fontStyle=0" vertex="1" parent="RAAy3S0Kc45pS8qdKvPB-53">
          <mxGeometry y="502" width="400" height="26" as="geometry" />
        </mxCell>
        <mxCell id="RAAy3S0Kc45pS8qdKvPB-225" value="+ stopServer() : boolean" style="text;align=left;verticalAlign=top;spacingLeft=4;spacingRight=4;overflow=hidden;rotatable=0;points=[[0,0.5],[1,0.5]];portConstraint=eastwest;rounded=0;shadow=0;html=0;fontStyle=0" vertex="1" parent="RAAy3S0Kc45pS8qdKvPB-53">
          <mxGeometry y="528" width="400" height="26" as="geometry" />
        </mxCell>
        <mxCell id="RAAy3S0Kc45pS8qdKvPB-226" value="+ run() : void" style="text;align=left;verticalAlign=top;spacingLeft=4;spacingRight=4;overflow=hidden;rotatable=0;points=[[0,0.5],[1,0.5]];portConstraint=eastwest;rounded=0;shadow=0;html=0;fontStyle=0" vertex="1" parent="RAAy3S0Kc45pS8qdKvPB-53">
          <mxGeometry y="554" width="400" height="26" as="geometry" />
        </mxCell>
        <mxCell id="RAAy3S0Kc45pS8qdKvPB-227" value="# createServerSocket(ip : String, port : int) : ServerSocket" style="text;align=left;verticalAlign=top;spacingLeft=4;spacingRight=4;overflow=hidden;rotatable=0;points=[[0,0.5],[1,0.5]];portConstraint=eastwest;rounded=0;shadow=0;html=0;fontStyle=0" vertex="1" parent="RAAy3S0Kc45pS8qdKvPB-53">
          <mxGeometry y="580" width="400" height="26" as="geometry" />
        </mxCell>
        <mxCell id="RAAy3S0Kc45pS8qdKvPB-228" value="# createProxyProcess(clientSocket : Socket) : ProxyThread " style="text;align=left;verticalAlign=top;spacingLeft=4;spacingRight=4;overflow=hidden;rotatable=0;points=[[0,0.5],[1,0.5]];portConstraint=eastwest;rounded=0;shadow=0;html=0;fontStyle=0" vertex="1" parent="RAAy3S0Kc45pS8qdKvPB-53">
          <mxGeometry y="606" width="400" height="26" as="geometry" />
        </mxCell>
        <mxCell id="RAAy3S0Kc45pS8qdKvPB-229" value="# writeOutput(s : String) : void " style="text;align=left;verticalAlign=top;spacingLeft=4;spacingRight=4;overflow=hidden;rotatable=0;points=[[0,0.5],[1,0.5]];portConstraint=eastwest;rounded=0;shadow=0;html=0;fontStyle=0" vertex="1" parent="RAAy3S0Kc45pS8qdKvPB-53">
          <mxGeometry y="632" width="400" height="26" as="geometry" />
        </mxCell>
        <mxCell id="RAAy3S0Kc45pS8qdKvPB-231" value="+ addProxyListener(listener : ProxyListener) : void" style="text;align=left;verticalAlign=top;spacingLeft=4;spacingRight=4;overflow=hidden;rotatable=0;points=[[0,0.5],[1,0.5]];portConstraint=eastwest;rounded=0;shadow=0;html=0;fontStyle=0" vertex="1" parent="RAAy3S0Kc45pS8qdKvPB-53">
          <mxGeometry y="658" width="400" height="26" as="geometry" />
        </mxCell>
        <mxCell id="RAAy3S0Kc45pS8qdKvPB-239" value="+ removeProxyListener(listener : ProxyListener) : void" style="text;align=left;verticalAlign=top;spacingLeft=4;spacingRight=4;overflow=hidden;rotatable=0;points=[[0,0.5],[1,0.5]];portConstraint=eastwest;rounded=0;shadow=0;html=0;fontStyle=0" vertex="1" parent="RAAy3S0Kc45pS8qdKvPB-53">
          <mxGeometry y="684" width="400" height="26" as="geometry" />
        </mxCell>
        <mxCell id="RAAy3S0Kc45pS8qdKvPB-230" value="getListenerList() : List" style="text;align=left;verticalAlign=top;spacingLeft=4;spacingRight=4;overflow=hidden;rotatable=0;points=[[0,0.5],[1,0.5]];portConstraint=eastwest;rounded=0;shadow=0;html=0;fontStyle=0" vertex="1" parent="RAAy3S0Kc45pS8qdKvPB-53">
          <mxGeometry y="710" width="400" height="26" as="geometry" />
        </mxCell>
        <mxCell id="RAAy3S0Kc45pS8qdKvPB-232" value="+ isAnyProxyThreadRunning() : boolean" style="text;align=left;verticalAlign=top;spacingLeft=4;spacingRight=4;overflow=hidden;rotatable=0;points=[[0,0.5],[1,0.5]];portConstraint=eastwest;rounded=0;shadow=0;html=0;fontStyle=0" vertex="1" parent="RAAy3S0Kc45pS8qdKvPB-53">
          <mxGeometry y="736" width="400" height="26" as="geometry" />
        </mxCell>
        <mxCell id="RAAy3S0Kc45pS8qdKvPB-234" value="+ setSerialize(serialize : boolean) : void" style="text;align=left;verticalAlign=top;spacingLeft=4;spacingRight=4;overflow=hidden;rotatable=0;points=[[0,0.5],[1,0.5]];portConstraint=eastwest;rounded=0;shadow=0;html=0;fontStyle=0" vertex="1" parent="RAAy3S0Kc45pS8qdKvPB-53">
          <mxGeometry y="762" width="400" height="26" as="geometry" />
        </mxCell>
        <mxCell id="RAAy3S0Kc45pS8qdKvPB-236" value="+ addCacheProcessingList(item : CacheProcessingItem) : void" style="text;align=left;verticalAlign=top;spacingLeft=4;spacingRight=4;overflow=hidden;rotatable=0;points=[[0,0.5],[1,0.5]];portConstraint=eastwest;rounded=0;shadow=0;html=0;fontStyle=0" vertex="1" parent="RAAy3S0Kc45pS8qdKvPB-53">
          <mxGeometry y="788" width="400" height="26" as="geometry" />
        </mxCell>
        <mxCell id="RAAy3S0Kc45pS8qdKvPB-238" value="getCacheProcessingList() : Vector" style="text;align=left;verticalAlign=top;spacingLeft=4;spacingRight=4;overflow=hidden;rotatable=0;points=[[0,0.5],[1,0.5]];portConstraint=eastwest;rounded=0;shadow=0;html=0;fontStyle=0" vertex="1" parent="RAAy3S0Kc45pS8qdKvPB-53">
          <mxGeometry y="814" width="400" height="26" as="geometry" />
        </mxCell>
        <mxCell id="RAAy3S0Kc45pS8qdKvPB-240" value="Paros" style="swimlane;fontStyle=0;align=center;verticalAlign=top;childLayout=stackLayout;horizontal=1;startSize=26;horizontalStack=0;resizeParent=1;resizeLast=0;collapsible=1;marginBottom=0;rounded=0;shadow=0;strokeWidth=1;fillColor=#d5e8d4;strokeColor=#82b366;" vertex="1" parent="WIyWlLk6GJQsqaUBKTNV-1">
          <mxGeometry x="70" y="110" width="160" height="268" as="geometry">
            <mxRectangle x="70" y="-60" width="170" height="26" as="alternateBounds" />
          </mxGeometry>
        </mxCell>
        <mxCell id="RAAy3S0Kc45pS8qdKvPB-241" value="- log: Log" style="text;align=left;verticalAlign=top;spacingLeft=4;spacingRight=4;overflow=hidden;rotatable=0;points=[[0,0.5],[1,0.5]];portConstraint=eastwest;fontStyle=4" vertex="1" parent="RAAy3S0Kc45pS8qdKvPB-240">
          <mxGeometry y="26" width="160" height="26" as="geometry" />
        </mxCell>
        <mxCell id="RAAy3S0Kc45pS8qdKvPB-242" value="- cmdLine: CommandLine" style="text;align=left;verticalAlign=top;spacingLeft=4;spacingRight=4;overflow=hidden;rotatable=0;points=[[0,0.5],[1,0.5]];portConstraint=eastwest;" vertex="1" parent="RAAy3S0Kc45pS8qdKvPB-240">
          <mxGeometry y="52" width="160" height="26" as="geometry" />
        </mxCell>
        <mxCell id="RAAy3S0Kc45pS8qdKvPB-243" value="" style="line;html=1;strokeWidth=1;align=left;verticalAlign=middle;spacingTop=-1;spacingLeft=3;spacingRight=3;rotatable=0;labelPosition=right;points=[];portConstraint=eastwest;" vertex="1" parent="RAAy3S0Kc45pS8qdKvPB-240">
          <mxGeometry y="78" width="160" height="8" as="geometry" />
        </mxCell>
        <mxCell id="RAAy3S0Kc45pS8qdKvPB-244" value="+ main(): void" style="text;align=left;verticalAlign=top;spacingLeft=4;spacingRight=4;overflow=hidden;rotatable=0;points=[[0,0.5],[1,0.5]];portConstraint=eastwest;fontStyle=4" vertex="1" parent="RAAy3S0Kc45pS8qdKvPB-240">
          <mxGeometry y="86" width="160" height="26" as="geometry" />
        </mxCell>
        <mxCell id="RAAy3S0Kc45pS8qdKvPB-245" value="- init(): void" style="text;align=left;verticalAlign=top;spacingLeft=4;spacingRight=4;overflow=hidden;rotatable=0;points=[[0,0.5],[1,0.5]];portConstraint=eastwest;" vertex="1" parent="RAAy3S0Kc45pS8qdKvPB-240">
          <mxGeometry y="112" width="160" height="26" as="geometry" />
        </mxCell>
        <mxCell id="RAAy3S0Kc45pS8qdKvPB-246" value="- run(): void" style="text;align=left;verticalAlign=top;spacingLeft=4;spacingRight=4;overflow=hidden;rotatable=0;points=[[0,0.5],[1,0.5]];portConstraint=eastwest;" vertex="1" parent="RAAy3S0Kc45pS8qdKvPB-240">
          <mxGeometry y="138" width="160" height="26" as="geometry" />
        </mxCell>
        <mxCell id="RAAy3S0Kc45pS8qdKvPB-247" value="- runCommandLine(): void" style="text;align=left;verticalAlign=top;spacingLeft=4;spacingRight=4;overflow=hidden;rotatable=0;points=[[0,0.5],[1,0.5]];portConstraint=eastwest;" vertex="1" parent="RAAy3S0Kc45pS8qdKvPB-240">
          <mxGeometry y="164" width="160" height="26" as="geometry" />
        </mxCell>
        <mxCell id="RAAy3S0Kc45pS8qdKvPB-248" value="- runGUI(): void" style="text;align=left;verticalAlign=top;spacingLeft=4;spacingRight=4;overflow=hidden;rotatable=0;points=[[0,0.5],[1,0.5]];portConstraint=eastwest;" vertex="1" parent="RAAy3S0Kc45pS8qdKvPB-240">
          <mxGeometry y="190" width="160" height="26" as="geometry" />
        </mxCell>
        <mxCell id="RAAy3S0Kc45pS8qdKvPB-249" value="- showLicense(): void" style="text;align=left;verticalAlign=top;spacingLeft=4;spacingRight=4;overflow=hidden;rotatable=0;points=[[0,0.5],[1,0.5]];portConstraint=eastwest;" vertex="1" parent="RAAy3S0Kc45pS8qdKvPB-240">
          <mxGeometry y="216" width="160" height="26" as="geometry" />
        </mxCell>
        <mxCell id="RAAy3S0Kc45pS8qdKvPB-250" value="- checkUpdate(): void" style="text;align=left;verticalAlign=top;spacingLeft=4;spacingRight=4;overflow=hidden;rotatable=0;points=[[0,0.5],[1,0.5]];portConstraint=eastwest;" vertex="1" parent="RAAy3S0Kc45pS8qdKvPB-240">
          <mxGeometry y="242" width="160" height="26" as="geometry" />
        </mxCell>
      </root>
    </mxGraphModel>
  </diagram>
</mxfile>
